solid OpenSCAD_Model
  facet normal -0 0 -1
    outer loop
      vertex -35 0 0
      vertex -34.2352 7.27691 0
      vertex -34.2352 -7.27691 0
    endloop
  endfacet
  facet normal 0 -0 -1
    outer loop
      vertex -34.2352 -7.27691 0
      vertex -34.2352 7.27691 0
      vertex -31.9741 14.2358 0
    endloop
  endfacet
  facet normal 0 0 -1
    outer loop
      vertex -34.2352 -7.27691 0
      vertex -31.9741 14.2358 0
      vertex -28.3156 20.5725 0
    endloop
  endfacet
  facet normal 0 0 -1
    outer loop
      vertex -34.2352 -7.27691 0
      vertex -28.3156 20.5725 0
      vertex -23.4196 26.0101 0
    endloop
  endfacet
  facet normal 0 0 -1
    outer loop
      vertex -31.0253 1.0253 0
      vertex -23.4196 26.0101 0
      vertex -17.5 30.3109 0
    endloop
  endfacet
  facet normal 0 0 -1
    outer loop
      vertex -28.9747 1.0253 0
      vertex -10.8156 33.287 0
      vertex -3.6585 34.8083 0
    endloop
  endfacet
  facet normal 0 0 -1
    outer loop
      vertex -34.2352 -7.27691 0
      vertex 3.6585 34.8083 0
      vertex 10.8156 33.287 0
    endloop
  endfacet
  facet normal 0 0 -1
    outer loop
      vertex -34.2352 -7.27691 0
      vertex 10.8156 33.287 0
      vertex 17.5 30.3109 0
    endloop
  endfacet
  facet normal 0 0 -1
    outer loop
      vertex -34.2352 -7.27691 0
      vertex 17.5 30.3109 0
      vertex 23.4196 26.0101 0
    endloop
  endfacet
  facet normal 0 0 -1
    outer loop
      vertex -34.2352 -7.27691 0
      vertex 23.4196 26.0101 0
      vertex 28.3156 20.5725 0
    endloop
  endfacet
  facet normal 0 0 -1
    outer loop
      vertex 1.90818 5.87277 0
      vertex 28.3156 20.5725 0
      vertex 31.9741 14.2358 0
    endloop
  endfacet
  facet normal 0 0 -1
    outer loop
      vertex 4.99568 3.62957 0
      vertex 31.9741 14.2358 0
      vertex 34.2352 7.27691 0
    endloop
  endfacet
  facet normal -0 0 -1
    outer loop
      vertex 30.5549 -1.33962 0
      vertex 35 0 0
      vertex 34.2352 -7.27691 0
    endloop
  endfacet
  facet normal 0 0 -1
    outer loop
      vertex -34.2352 -7.27691 0
      vertex 34.2352 -7.27691 0
      vertex 31.9741 -14.2358 0
    endloop
  endfacet
  facet normal 0 0 -1
    outer loop
      vertex -34.2352 -7.27691 0
      vertex 31.9741 -14.2358 0
      vertex 28.3156 -20.5725 0
    endloop
  endfacet
  facet normal 0 0 -1
    outer loop
      vertex -34.2352 -7.27691 0
      vertex 28.3156 -20.5725 0
      vertex 23.4196 -26.0101 0
    endloop
  endfacet
  facet normal 0 0 -1
    outer loop
      vertex -34.2352 -7.27691 0
      vertex 23.4196 -26.0101 0
      vertex 17.5 -30.3109 0
    endloop
  endfacet
  facet normal 0 0 -1
    outer loop
      vertex -34.2352 -7.27691 0
      vertex 17.5 -30.3109 0
      vertex 10.8156 -33.287 0
    endloop
  endfacet
  facet normal 0 0 -1
    outer loop
      vertex -34.2352 -7.27691 0
      vertex 10.8156 -33.287 0
      vertex 3.6585 -34.8083 0
    endloop
  endfacet
  facet normal 0 0 -1
    outer loop
      vertex -34.2352 -7.27691 0
      vertex 3.6585 -34.8083 0
      vertex -3.6585 -34.8083 0
    endloop
  endfacet
  facet normal 0 0 -1
    outer loop
      vertex -34.2352 -7.27691 0
      vertex -3.6585 -34.8083 0
      vertex -10.8156 -33.287 0
    endloop
  endfacet
  facet normal 0 0 -1
    outer loop
      vertex -34.2352 -7.27691 0
      vertex -10.8156 -33.287 0
      vertex -17.5 -30.3109 0
    endloop
  endfacet
  facet normal 0 0 -1
    outer loop
      vertex -34.2352 -7.27691 0
      vertex -17.5 -30.3109 0
      vertex -23.4196 -26.0101 0
    endloop
  endfacet
  facet normal 0 0 -1
    outer loop
      vertex -34.2352 -7.27691 0
      vertex -23.4196 -26.0101 0
      vertex -28.3156 -20.5725 0
    endloop
  endfacet
  facet normal 0 0 -1
    outer loop
      vertex -34.2352 -7.27691 0
      vertex -28.3156 -20.5725 0
      vertex -31.9741 -14.2358 0
    endloop
  endfacet
  facet normal 0 0 -1
    outer loop
      vertex -5.87277 -1.90818 0
      vertex -34.2352 -7.27691 0
      vertex -6.175 0 0
    endloop
  endfacet
  facet normal 0 0 -1
    outer loop
      vertex -34.2352 -7.27691 0
      vertex -31.45 0 0
      vertex -31.3396 -0.554891 0
    endloop
  endfacet
  facet normal 0 0 -1
    outer loop
      vertex -30.5549 1.33962 0
      vertex -17.5 30.3109 0
      vertex -30 1.45 0
    endloop
  endfacet
  facet normal 0 0 -1
    outer loop
      vertex -30 -1.45 0
      vertex -34.2352 -7.27691 0
      vertex -30.5549 -1.33962 0
    endloop
  endfacet
  facet normal -0 0 -1
    outer loop
      vertex -28.55 0 0
      vertex 3.6585 34.8083 0
      vertex -28.6604 -0.554891 0
    endloop
  endfacet
  facet normal 0 0 -1
    outer loop
      vertex -34.2352 -7.27691 0
      vertex -30 -1.45 0
      vertex -29.4451 -1.33962 0
    endloop
  endfacet
  facet normal -0 0 -1
    outer loop
      vertex -28.6604 0.554891 0
      vertex 3.6585 34.8083 0
      vertex -28.55 0 0
    endloop
  endfacet
  facet normal 0 0 -1
    outer loop
      vertex -34.2352 -7.27691 0
      vertex -29.4451 -1.33962 0
      vertex -28.9747 -1.0253 0
    endloop
  endfacet
  facet normal 0 0 -1
    outer loop
      vertex -34.2352 -7.27691 0
      vertex -28.9747 -1.0253 0
      vertex 3.6585 34.8083 0
    endloop
  endfacet
  facet normal 0 0 -1
    outer loop
      vertex -28.9747 -1.0253 0
      vertex -28.6604 -0.554891 0
      vertex 3.6585 34.8083 0
    endloop
  endfacet
  facet normal 0 0 -1
    outer loop
      vertex -28.6604 0.554891 0
      vertex -3.6585 34.8083 0
      vertex 3.6585 34.8083 0
    endloop
  endfacet
  facet normal -0 0 -1
    outer loop
      vertex -30 1.45 0
      vertex -10.8156 33.287 0
      vertex -29.4451 1.33962 0
    endloop
  endfacet
  facet normal -0 0 -1
    outer loop
      vertex -29.4451 1.33962 0
      vertex -10.8156 33.287 0
      vertex -28.9747 1.0253 0
    endloop
  endfacet
  facet normal -0 0 -1
    outer loop
      vertex -28.9747 1.0253 0
      vertex -3.6585 34.8083 0
      vertex -28.6604 0.554891 0
    endloop
  endfacet
  facet normal 0 0 -1
    outer loop
      vertex -30 1.45 0
      vertex -17.5 30.3109 0
      vertex -10.8156 33.287 0
    endloop
  endfacet
  facet normal 0 0 -1
    outer loop
      vertex -30.5549 -1.33962 0
      vertex -34.2352 -7.27691 0
      vertex -31.0253 -1.0253 0
    endloop
  endfacet
  facet normal 0 0 -1
    outer loop
      vertex -31.0253 1.0253 0
      vertex -17.5 30.3109 0
      vertex -30.5549 1.33962 0
    endloop
  endfacet
  facet normal -0 0 -1
    outer loop
      vertex 4.99568 3.62957 0
      vertex 34.2352 7.27691 0
      vertex 5.87277 1.90818 0
    endloop
  endfacet
  facet normal 0 0 -1
    outer loop
      vertex -31.3396 0.554891 0
      vertex -23.4196 26.0101 0
      vertex -31.0253 1.0253 0
    endloop
  endfacet
  facet normal 0 0 -1
    outer loop
      vertex -34.2352 -7.27691 0
      vertex -23.4196 26.0101 0
      vertex -31.3396 0.554891 0
    endloop
  endfacet
  facet normal 0 0 -1
    outer loop
      vertex -34.2352 -7.27691 0
      vertex -31.3396 0.554891 0
      vertex -31.45 0 0
    endloop
  endfacet
  facet normal -0 0 -1
    outer loop
      vertex 1.90818 5.87277 0
      vertex 31.9741 14.2358 0
      vertex 3.62957 4.99568 0
    endloop
  endfacet
  facet normal 0 0 -1
    outer loop
      vertex -3.62957 -4.99568 0
      vertex -34.2352 -7.27691 0
      vertex -4.99568 -3.62957 0
    endloop
  endfacet
  facet normal 0 0 -1
    outer loop
      vertex 31.45 0 0
      vertex 35 0 0
      vertex 31.3396 -0.554891 0
    endloop
  endfacet
  facet normal 0 0 -1
    outer loop
      vertex -34.2352 -7.27691 0
      vertex -5.87277 -1.90818 0
      vertex -4.99568 -3.62957 0
    endloop
  endfacet
  facet normal 0 0 -1
    outer loop
      vertex -34.2352 -7.27691 0
      vertex -3.62957 -4.99568 0
      vertex -1.90818 -5.87277 0
    endloop
  endfacet
  facet normal 0 0 -1
    outer loop
      vertex -34.2352 -7.27691 0
      vertex -1.90818 -5.87277 0
      vertex 0 -6.175 0
    endloop
  endfacet
  facet normal -0 0 -1
    outer loop
      vertex -34.2352 -7.27691 0
      vertex 0 -6.175 0
      vertex 34.2352 -7.27691 0
    endloop
  endfacet
  facet normal 0 0 -1
    outer loop
      vertex 3.62957 -4.99568 0
      vertex 34.2352 -7.27691 0
      vertex 1.90818 -5.87277 0
    endloop
  endfacet
  facet normal 0 0 -1
    outer loop
      vertex 1.90818 -5.87277 0
      vertex 34.2352 -7.27691 0
      vertex 0 -6.175 0
    endloop
  endfacet
  facet normal 0 0 -1
    outer loop
      vertex 28.9747 -1.0253 0
      vertex 3.62957 -4.99568 0
      vertex 4.99568 -3.62957 0
    endloop
  endfacet
  facet normal -0 0 -1
    outer loop
      vertex 31.3396 0.554891 0
      vertex 34.2352 7.27691 0
      vertex 31.45 0 0
    endloop
  endfacet
  facet normal 0 0 -1
    outer loop
      vertex 6.175 0 0
      vertex 28.55 0 0
      vertex 5.87277 -1.90818 0
    endloop
  endfacet
  facet normal 0 0 -1
    outer loop
      vertex 29.4451 1.33962 0
      vertex 34.2352 7.27691 0
      vertex 30 1.45 0
    endloop
  endfacet
  facet normal -0 0 -1
    outer loop
      vertex 3.62957 4.99568 0
      vertex 31.9741 14.2358 0
      vertex 4.99568 3.62957 0
    endloop
  endfacet
  facet normal -0 0 -1
    outer loop
      vertex 0 6.175 0
      vertex 28.3156 20.5725 0
      vertex 1.90818 5.87277 0
    endloop
  endfacet
  facet normal 0 -0 -1
    outer loop
      vertex -4.99568 3.62957 0
      vertex -34.2352 -7.27691 0
      vertex -3.62957 4.99568 0
    endloop
  endfacet
  facet normal 0 0 -1
    outer loop
      vertex -1.90818 5.87277 0
      vertex 28.3156 20.5725 0
      vertex 0 6.175 0
    endloop
  endfacet
  facet normal 0 0 -1
    outer loop
      vertex -34.2352 -7.27691 0
      vertex 28.3156 20.5725 0
      vertex -1.90818 5.87277 0
    endloop
  endfacet
  facet normal 0 0 -1
    outer loop
      vertex -34.2352 -7.27691 0
      vertex -1.90818 5.87277 0
      vertex -3.62957 4.99568 0
    endloop
  endfacet
  facet normal 0 -0 -1
    outer loop
      vertex -5.87277 1.90818 0
      vertex -34.2352 -7.27691 0
      vertex -4.99568 3.62957 0
    endloop
  endfacet
  facet normal 0 0 -1
    outer loop
      vertex 28.6604 -0.554891 0
      vertex 5.87277 -1.90818 0
      vertex 28.55 0 0
    endloop
  endfacet
  facet normal 0 0 -1
    outer loop
      vertex -34.2352 -7.27691 0
      vertex -5.87277 1.90818 0
      vertex -6.175 0 0
    endloop
  endfacet
  facet normal -0 0 -1
    outer loop
      vertex 5.87277 1.90818 0
      vertex 34.2352 7.27691 0
      vertex 6.175 0 0
    endloop
  endfacet
  facet normal -0 0 -1
    outer loop
      vertex 31.45 0 0
      vertex 34.2352 7.27691 0
      vertex 35 0 0
    endloop
  endfacet
  facet normal 0 0 -1
    outer loop
      vertex 28.9747 -1.0253 0
      vertex 4.99568 -3.62957 0
      vertex 28.6604 -0.554891 0
    endloop
  endfacet
  facet normal -0 0 -1
    outer loop
      vertex 31.0253 -1.0253 0
      vertex 35 0 0
      vertex 30.5549 -1.33962 0
    endloop
  endfacet
  facet normal -0 0 -1
    outer loop
      vertex 3.62957 -4.99568 0
      vertex 28.9747 -1.0253 0
      vertex 34.2352 -7.27691 0
    endloop
  endfacet
  facet normal 0 0 -1
    outer loop
      vertex 28.9747 -1.0253 0
      vertex 29.4451 -1.33962 0
      vertex 34.2352 -7.27691 0
    endloop
  endfacet
  facet normal -0 0 -1
    outer loop
      vertex 31.3396 -0.554891 0
      vertex 35 0 0
      vertex 31.0253 -1.0253 0
    endloop
  endfacet
  facet normal 0 0 -1
    outer loop
      vertex 29.4451 -1.33962 0
      vertex 30 -1.45 0
      vertex 34.2352 -7.27691 0
    endloop
  endfacet
  facet normal -0 0 -1
    outer loop
      vertex 30 -1.45 0
      vertex 30.5549 -1.33962 0
      vertex 34.2352 -7.27691 0
    endloop
  endfacet
  facet normal -0 0 -1
    outer loop
      vertex 5.87277 -1.90818 0
      vertex 28.6604 -0.554891 0
      vertex 4.99568 -3.62957 0
    endloop
  endfacet
  facet normal -0 0 -1
    outer loop
      vertex 31.0253 1.0253 0
      vertex 34.2352 7.27691 0
      vertex 31.3396 0.554891 0
    endloop
  endfacet
  facet normal -0 0 -1
    outer loop
      vertex 30.5549 1.33962 0
      vertex 34.2352 7.27691 0
      vertex 31.0253 1.0253 0
    endloop
  endfacet
  facet normal -0 0 -1
    outer loop
      vertex 30 1.45 0
      vertex 34.2352 7.27691 0
      vertex 30.5549 1.33962 0
    endloop
  endfacet
  facet normal 0 0 -1
    outer loop
      vertex 6.175 0 0
      vertex 34.2352 7.27691 0
      vertex 29.4451 1.33962 0
    endloop
  endfacet
  facet normal 0 0 -1
    outer loop
      vertex 6.175 0 0
      vertex 29.4451 1.33962 0
      vertex 28.9747 1.0253 0
    endloop
  endfacet
  facet normal 0 0 -1
    outer loop
      vertex 6.175 0 0
      vertex 28.9747 1.0253 0
      vertex 28.6604 0.554891 0
    endloop
  endfacet
  facet normal -0 0 -1
    outer loop
      vertex 6.175 0 0
      vertex 28.6604 0.554891 0
      vertex 28.55 0 0
    endloop
  endfacet
  facet normal 0 0 -1
    outer loop
      vertex -31.0253 -1.0253 0
      vertex -34.2352 -7.27691 0
      vertex -31.3396 -0.554891 0
    endloop
  endfacet
  facet normal -0.994522 0.104528 0
    outer loop
      vertex -35 0 0
      vertex -35 0 2
      vertex -34.2352 7.27691 0
    endloop
  endfacet
  facet normal -0.994522 0.104528 0
    outer loop
      vertex -34.2352 7.27691 0
      vertex -35 0 2
      vertex -34.2352 7.27691 2
    endloop
  endfacet
  facet normal -0.994522 -0.104528 -0
    outer loop
      vertex -35 0 0
      vertex -34.2352 -7.27691 0
      vertex -35 0 2
    endloop
  endfacet
  facet normal -0.994522 -0.104528 0
    outer loop
      vertex -35 0 2
      vertex -34.2352 -7.27691 0
      vertex -34.2352 -7.27691 2
    endloop
  endfacet
  facet normal -0.951057 -0.309017 -0
    outer loop
      vertex -34.2352 -7.27691 0
      vertex -31.9741 -14.2358 0
      vertex -34.2352 -7.27691 2
    endloop
  endfacet
  facet normal -0.951057 -0.309017 0
    outer loop
      vertex -34.2352 -7.27691 2
      vertex -31.9741 -14.2358 0
      vertex -31.9741 -14.2358 2
    endloop
  endfacet
  facet normal -0.866025 -0.5 -0
    outer loop
      vertex -31.9741 -14.2358 0
      vertex -28.3156 -20.5725 0
      vertex -31.9741 -14.2358 2
    endloop
  endfacet
  facet normal -0.866025 -0.5 0
    outer loop
      vertex -31.9741 -14.2358 2
      vertex -28.3156 -20.5725 0
      vertex -28.3156 -20.5725 2
    endloop
  endfacet
  facet normal -0.743145 -0.669131 -0
    outer loop
      vertex -28.3156 -20.5725 0
      vertex -23.4196 -26.0101 0
      vertex -28.3156 -20.5725 2
    endloop
  endfacet
  facet normal -0.743145 -0.669131 0
    outer loop
      vertex -28.3156 -20.5725 2
      vertex -23.4196 -26.0101 0
      vertex -23.4196 -26.0101 2
    endloop
  endfacet
  facet normal -0.587785 -0.809017 0
    outer loop
      vertex -23.4196 -26.0101 2
      vertex -23.4196 -26.0101 0
      vertex -17.5 -30.3109 0
    endloop
  endfacet
  facet normal -0.587785 -0.809017 0
    outer loop
      vertex -17.5 -30.3109 2
      vertex -23.4196 -26.0101 2
      vertex -17.5 -30.3109 0
    endloop
  endfacet
  facet normal -0.406737 -0.913545 0
    outer loop
      vertex -17.5 -30.3109 2
      vertex -17.5 -30.3109 0
      vertex -10.8156 -33.287 0
    endloop
  endfacet
  facet normal -0.406737 -0.913545 0
    outer loop
      vertex -10.8156 -33.287 2
      vertex -17.5 -30.3109 2
      vertex -10.8156 -33.287 0
    endloop
  endfacet
  facet normal -0.207912 -0.978148 0
    outer loop
      vertex -10.8156 -33.287 2
      vertex -10.8156 -33.287 0
      vertex -3.6585 -34.8083 0
    endloop
  endfacet
  facet normal -0.207912 -0.978148 0
    outer loop
      vertex -3.6585 -34.8083 2
      vertex -10.8156 -33.287 2
      vertex -3.6585 -34.8083 0
    endloop
  endfacet
  facet normal 0 -1 0
    outer loop
      vertex -3.6585 -34.8083 2
      vertex -3.6585 -34.8083 0
      vertex 3.6585 -34.8083 0
    endloop
  endfacet
  facet normal 0 -1 0
    outer loop
      vertex 3.6585 -34.8083 2
      vertex -3.6585 -34.8083 2
      vertex 3.6585 -34.8083 0
    endloop
  endfacet
  facet normal 0.207912 -0.978148 0
    outer loop
      vertex 3.6585 -34.8083 2
      vertex 3.6585 -34.8083 0
      vertex 10.8156 -33.287 0
    endloop
  endfacet
  facet normal 0.207912 -0.978148 0
    outer loop
      vertex 10.8156 -33.287 2
      vertex 3.6585 -34.8083 2
      vertex 10.8156 -33.287 0
    endloop
  endfacet
  facet normal 0.406737 -0.913545 0
    outer loop
      vertex 10.8156 -33.287 2
      vertex 10.8156 -33.287 0
      vertex 17.5 -30.3109 0
    endloop
  endfacet
  facet normal 0.406737 -0.913545 0
    outer loop
      vertex 17.5 -30.3109 2
      vertex 10.8156 -33.287 2
      vertex 17.5 -30.3109 0
    endloop
  endfacet
  facet normal 0.587785 -0.809017 0
    outer loop
      vertex 17.5 -30.3109 2
      vertex 17.5 -30.3109 0
      vertex 23.4196 -26.0101 0
    endloop
  endfacet
  facet normal 0.587785 -0.809017 0
    outer loop
      vertex 23.4196 -26.0101 2
      vertex 17.5 -30.3109 2
      vertex 23.4196 -26.0101 0
    endloop
  endfacet
  facet normal 0.743145 -0.669131 0
    outer loop
      vertex 23.4196 -26.0101 2
      vertex 23.4196 -26.0101 0
      vertex 28.3156 -20.5725 0
    endloop
  endfacet
  facet normal 0.743145 -0.669131 0
    outer loop
      vertex 28.3156 -20.5725 2
      vertex 23.4196 -26.0101 2
      vertex 28.3156 -20.5725 0
    endloop
  endfacet
  facet normal 0.866025 -0.5 0
    outer loop
      vertex 28.3156 -20.5725 2
      vertex 28.3156 -20.5725 0
      vertex 31.9741 -14.2358 0
    endloop
  endfacet
  facet normal 0.866025 -0.5 0
    outer loop
      vertex 31.9741 -14.2358 2
      vertex 28.3156 -20.5725 2
      vertex 31.9741 -14.2358 0
    endloop
  endfacet
  facet normal 0.951057 -0.309017 0
    outer loop
      vertex 31.9741 -14.2358 2
      vertex 31.9741 -14.2358 0
      vertex 34.2352 -7.27691 0
    endloop
  endfacet
  facet normal 0.951057 -0.309017 0
    outer loop
      vertex 34.2352 -7.27691 2
      vertex 31.9741 -14.2358 2
      vertex 34.2352 -7.27691 0
    endloop
  endfacet
  facet normal 0.994522 -0.104528 0
    outer loop
      vertex 34.2352 -7.27691 2
      vertex 34.2352 -7.27691 0
      vertex 35 0 0
    endloop
  endfacet
  facet normal 0.994522 -0.104528 0
    outer loop
      vertex 35 0 2
      vertex 34.2352 -7.27691 2
      vertex 35 0 0
    endloop
  endfacet
  facet normal 0.994522 0.104528 0
    outer loop
      vertex 35 0 0
      vertex 34.2352 7.27691 0
      vertex 34.2352 7.27691 2
    endloop
  endfacet
  facet normal 0.994522 0.104528 -0
    outer loop
      vertex 35 0 2
      vertex 35 0 0
      vertex 34.2352 7.27691 2
    endloop
  endfacet
  facet normal 0.951057 0.309017 0
    outer loop
      vertex 34.2352 7.27691 0
      vertex 31.9741 14.2358 0
      vertex 31.9741 14.2358 2
    endloop
  endfacet
  facet normal 0.951057 0.309017 -0
    outer loop
      vertex 34.2352 7.27691 2
      vertex 34.2352 7.27691 0
      vertex 31.9741 14.2358 2
    endloop
  endfacet
  facet normal 0.866025 0.5 0
    outer loop
      vertex 31.9741 14.2358 0
      vertex 28.3156 20.5725 0
      vertex 28.3156 20.5725 2
    endloop
  endfacet
  facet normal 0.866025 0.5 -0
    outer loop
      vertex 31.9741 14.2358 2
      vertex 31.9741 14.2358 0
      vertex 28.3156 20.5725 2
    endloop
  endfacet
  facet normal 0.743145 0.669131 0
    outer loop
      vertex 28.3156 20.5725 0
      vertex 23.4196 26.0101 0
      vertex 23.4196 26.0101 2
    endloop
  endfacet
  facet normal 0.743145 0.669131 -0
    outer loop
      vertex 28.3156 20.5725 2
      vertex 28.3156 20.5725 0
      vertex 23.4196 26.0101 2
    endloop
  endfacet
  facet normal 0.587785 0.809017 0
    outer loop
      vertex 17.5 30.3109 0
      vertex 17.5 30.3109 2
      vertex 23.4196 26.0101 0
    endloop
  endfacet
  facet normal 0.587785 0.809017 0
    outer loop
      vertex 23.4196 26.0101 0
      vertex 17.5 30.3109 2
      vertex 23.4196 26.0101 2
    endloop
  endfacet
  facet normal 0.406737 0.913545 0
    outer loop
      vertex 10.8156 33.287 0
      vertex 10.8156 33.287 2
      vertex 17.5 30.3109 0
    endloop
  endfacet
  facet normal 0.406737 0.913545 0
    outer loop
      vertex 17.5 30.3109 0
      vertex 10.8156 33.287 2
      vertex 17.5 30.3109 2
    endloop
  endfacet
  facet normal 0.207912 0.978148 0
    outer loop
      vertex 3.6585 34.8083 0
      vertex 3.6585 34.8083 2
      vertex 10.8156 33.287 0
    endloop
  endfacet
  facet normal 0.207912 0.978148 0
    outer loop
      vertex 10.8156 33.287 0
      vertex 3.6585 34.8083 2
      vertex 10.8156 33.287 2
    endloop
  endfacet
  facet normal 0 1 0
    outer loop
      vertex -3.6585 34.8083 0
      vertex -3.6585 34.8083 2
      vertex 3.6585 34.8083 0
    endloop
  endfacet
  facet normal 0 1 0
    outer loop
      vertex 3.6585 34.8083 0
      vertex -3.6585 34.8083 2
      vertex 3.6585 34.8083 2
    endloop
  endfacet
  facet normal -0.207912 0.978148 0
    outer loop
      vertex -10.8156 33.287 0
      vertex -10.8156 33.287 2
      vertex -3.6585 34.8083 0
    endloop
  endfacet
  facet normal -0.207912 0.978148 0
    outer loop
      vertex -3.6585 34.8083 0
      vertex -10.8156 33.287 2
      vertex -3.6585 34.8083 2
    endloop
  endfacet
  facet normal -0.406737 0.913545 0
    outer loop
      vertex -17.5 30.3109 0
      vertex -17.5 30.3109 2
      vertex -10.8156 33.287 0
    endloop
  endfacet
  facet normal -0.406737 0.913545 0
    outer loop
      vertex -10.8156 33.287 0
      vertex -17.5 30.3109 2
      vertex -10.8156 33.287 2
    endloop
  endfacet
  facet normal -0.587785 0.809017 0
    outer loop
      vertex -23.4196 26.0101 0
      vertex -23.4196 26.0101 2
      vertex -17.5 30.3109 0
    endloop
  endfacet
  facet normal -0.587785 0.809017 0
    outer loop
      vertex -17.5 30.3109 0
      vertex -23.4196 26.0101 2
      vertex -17.5 30.3109 2
    endloop
  endfacet
  facet normal -0.743145 0.669131 0
    outer loop
      vertex -28.3156 20.5725 0
      vertex -28.3156 20.5725 2
      vertex -23.4196 26.0101 0
    endloop
  endfacet
  facet normal -0.743145 0.669131 0
    outer loop
      vertex -23.4196 26.0101 0
      vertex -28.3156 20.5725 2
      vertex -23.4196 26.0101 2
    endloop
  endfacet
  facet normal -0.866025 0.5 0
    outer loop
      vertex -31.9741 14.2358 0
      vertex -31.9741 14.2358 2
      vertex -28.3156 20.5725 0
    endloop
  endfacet
  facet normal -0.866025 0.5 0
    outer loop
      vertex -28.3156 20.5725 0
      vertex -31.9741 14.2358 2
      vertex -28.3156 20.5725 2
    endloop
  endfacet
  facet normal -0.951057 0.309017 0
    outer loop
      vertex -34.2352 7.27691 0
      vertex -34.2352 7.27691 2
      vertex -31.9741 14.2358 0
    endloop
  endfacet
  facet normal -0.951057 0.309017 0
    outer loop
      vertex -31.9741 14.2358 0
      vertex -34.2352 7.27691 2
      vertex -31.9741 14.2358 2
    endloop
  endfacet
  facet normal 0.980785 0.195091 0
    outer loop
      vertex -31.45 0 2
      vertex -31.3396 -0.554891 2
      vertex -31.3396 -0.554891 0
    endloop
  endfacet
  facet normal 0.980785 0.195091 0
    outer loop
      vertex -31.45 0 0
      vertex -31.45 0 2
      vertex -31.3396 -0.554891 0
    endloop
  endfacet
  facet normal 0.980785 -0.195091 0
    outer loop
      vertex -31.3396 0.554891 0
      vertex -31.3396 0.554891 2
      vertex -31.45 0 2
    endloop
  endfacet
  facet normal 0.980785 -0.195091 0
    outer loop
      vertex -31.45 0 0
      vertex -31.3396 0.554891 0
      vertex -31.45 0 2
    endloop
  endfacet
  facet normal 0.83147 -0.55557 0
    outer loop
      vertex -31.0253 1.0253 0
      vertex -31.0253 1.0253 2
      vertex -31.3396 0.554891 2
    endloop
  endfacet
  facet normal 0.83147 -0.55557 0
    outer loop
      vertex -31.3396 0.554891 0
      vertex -31.0253 1.0253 0
      vertex -31.3396 0.554891 2
    endloop
  endfacet
  facet normal 0.55557 -0.83147 0
    outer loop
      vertex -30.5549 1.33962 0
      vertex -30.5549 1.33962 2
      vertex -31.0253 1.0253 2
    endloop
  endfacet
  facet normal 0.55557 -0.83147 0
    outer loop
      vertex -31.0253 1.0253 0
      vertex -30.5549 1.33962 0
      vertex -31.0253 1.0253 2
    endloop
  endfacet
  facet normal 0.195091 -0.980785 0
    outer loop
      vertex -30 1.45 0
      vertex -30 1.45 2
      vertex -30.5549 1.33962 2
    endloop
  endfacet
  facet normal 0.195091 -0.980785 0
    outer loop
      vertex -30.5549 1.33962 0
      vertex -30 1.45 0
      vertex -30.5549 1.33962 2
    endloop
  endfacet
  facet normal -0.195091 -0.980785 -0
    outer loop
      vertex -29.4451 1.33962 0
      vertex -29.4451 1.33962 2
      vertex -30 1.45 2
    endloop
  endfacet
  facet normal -0.195091 -0.980785 -0
    outer loop
      vertex -30 1.45 0
      vertex -29.4451 1.33962 0
      vertex -30 1.45 2
    endloop
  endfacet
  facet normal -0.55557 -0.83147 -0
    outer loop
      vertex -28.9747 1.0253 0
      vertex -28.9747 1.0253 2
      vertex -29.4451 1.33962 2
    endloop
  endfacet
  facet normal -0.55557 -0.83147 -0
    outer loop
      vertex -29.4451 1.33962 0
      vertex -28.9747 1.0253 0
      vertex -29.4451 1.33962 2
    endloop
  endfacet
  facet normal -0.83147 -0.55557 0
    outer loop
      vertex -28.6604 0.554891 2
      vertex -28.9747 1.0253 2
      vertex -28.6604 0.554891 0
    endloop
  endfacet
  facet normal -0.83147 -0.55557 0
    outer loop
      vertex -28.6604 0.554891 0
      vertex -28.9747 1.0253 2
      vertex -28.9747 1.0253 0
    endloop
  endfacet
  facet normal -0.980785 -0.195091 0
    outer loop
      vertex -28.55 0 2
      vertex -28.6604 0.554891 2
      vertex -28.55 0 0
    endloop
  endfacet
  facet normal -0.980785 -0.195091 0
    outer loop
      vertex -28.55 0 0
      vertex -28.6604 0.554891 2
      vertex -28.6604 0.554891 0
    endloop
  endfacet
  facet normal -0.980785 0.195091 0
    outer loop
      vertex -28.55 0 2
      vertex -28.55 0 0
      vertex -28.6604 -0.554891 2
    endloop
  endfacet
  facet normal -0.980785 0.195091 0
    outer loop
      vertex -28.6604 -0.554891 2
      vertex -28.55 0 0
      vertex -28.6604 -0.554891 0
    endloop
  endfacet
  facet normal -0.83147 0.55557 0
    outer loop
      vertex -28.6604 -0.554891 2
      vertex -28.6604 -0.554891 0
      vertex -28.9747 -1.0253 2
    endloop
  endfacet
  facet normal -0.83147 0.55557 0
    outer loop
      vertex -28.9747 -1.0253 2
      vertex -28.6604 -0.554891 0
      vertex -28.9747 -1.0253 0
    endloop
  endfacet
  facet normal -0.55557 0.83147 0
    outer loop
      vertex -28.9747 -1.0253 2
      vertex -28.9747 -1.0253 0
      vertex -29.4451 -1.33962 2
    endloop
  endfacet
  facet normal -0.55557 0.83147 0
    outer loop
      vertex -29.4451 -1.33962 2
      vertex -28.9747 -1.0253 0
      vertex -29.4451 -1.33962 0
    endloop
  endfacet
  facet normal -0.195091 0.980785 0
    outer loop
      vertex -29.4451 -1.33962 2
      vertex -29.4451 -1.33962 0
      vertex -30 -1.45 2
    endloop
  endfacet
  facet normal -0.195091 0.980785 0
    outer loop
      vertex -30 -1.45 2
      vertex -29.4451 -1.33962 0
      vertex -30 -1.45 0
    endloop
  endfacet
  facet normal 0.195091 0.980785 -0
    outer loop
      vertex -30 -1.45 2
      vertex -30 -1.45 0
      vertex -30.5549 -1.33962 2
    endloop
  endfacet
  facet normal 0.195091 0.980785 -0
    outer loop
      vertex -30.5549 -1.33962 2
      vertex -30 -1.45 0
      vertex -30.5549 -1.33962 0
    endloop
  endfacet
  facet normal 0.55557 0.83147 -0
    outer loop
      vertex -30.5549 -1.33962 2
      vertex -30.5549 -1.33962 0
      vertex -31.0253 -1.0253 2
    endloop
  endfacet
  facet normal 0.55557 0.83147 -0
    outer loop
      vertex -31.0253 -1.0253 2
      vertex -30.5549 -1.33962 0
      vertex -31.0253 -1.0253 0
    endloop
  endfacet
  facet normal 0.83147 0.55557 0
    outer loop
      vertex -31.3396 -0.554891 2
      vertex -31.0253 -1.0253 2
      vertex -31.0253 -1.0253 0
    endloop
  endfacet
  facet normal 0.83147 0.55557 0
    outer loop
      vertex -31.3396 -0.554891 0
      vertex -31.3396 -0.554891 2
      vertex -31.0253 -1.0253 0
    endloop
  endfacet
  facet normal 0.987688 -0.156434 0
    outer loop
      vertex -5.87277 1.90818 0
      vertex -5.87277 1.90818 2
      vertex -6.175 0 2
    endloop
  endfacet
  facet normal 0.987688 -0.156434 0
    outer loop
      vertex -6.175 0 0
      vertex -5.87277 1.90818 0
      vertex -6.175 0 2
    endloop
  endfacet
  facet normal 0.987688 0.156434 0
    outer loop
      vertex -6.175 0 2
      vertex -5.87277 -1.90818 2
      vertex -5.87277 -1.90818 0
    endloop
  endfacet
  facet normal 0.987688 0.156434 0
    outer loop
      vertex -6.175 0 0
      vertex -6.175 0 2
      vertex -5.87277 -1.90818 0
    endloop
  endfacet
  facet normal 0.891007 -0.45399 0
    outer loop
      vertex -4.99568 3.62957 0
      vertex -4.99568 3.62957 2
      vertex -5.87277 1.90818 2
    endloop
  endfacet
  facet normal 0.891007 -0.45399 0
    outer loop
      vertex -5.87277 1.90818 0
      vertex -4.99568 3.62957 0
      vertex -5.87277 1.90818 2
    endloop
  endfacet
  facet normal 0.707107 -0.707107 0
    outer loop
      vertex -3.62957 4.99568 0
      vertex -3.62957 4.99568 2
      vertex -4.99568 3.62957 2
    endloop
  endfacet
  facet normal 0.707107 -0.707107 0
    outer loop
      vertex -4.99568 3.62957 0
      vertex -3.62957 4.99568 0
      vertex -4.99568 3.62957 2
    endloop
  endfacet
  facet normal 0.45399 -0.891007 0
    outer loop
      vertex -1.90818 5.87277 0
      vertex -1.90818 5.87277 2
      vertex -3.62957 4.99568 2
    endloop
  endfacet
  facet normal 0.45399 -0.891007 0
    outer loop
      vertex -3.62957 4.99568 0
      vertex -1.90818 5.87277 0
      vertex -3.62957 4.99568 2
    endloop
  endfacet
  facet normal 0.156434 -0.987688 0
    outer loop
      vertex 0 6.175 0
      vertex 0 6.175 2
      vertex -1.90818 5.87277 2
    endloop
  endfacet
  facet normal 0.156434 -0.987688 0
    outer loop
      vertex -1.90818 5.87277 0
      vertex 0 6.175 0
      vertex -1.90818 5.87277 2
    endloop
  endfacet
  facet normal -0.156434 -0.987688 -0
    outer loop
      vertex 1.90818 5.87277 0
      vertex 1.90818 5.87277 2
      vertex 0 6.175 2
    endloop
  endfacet
  facet normal -0.156434 -0.987688 -0
    outer loop
      vertex 0 6.175 0
      vertex 1.90818 5.87277 0
      vertex 0 6.175 2
    endloop
  endfacet
  facet normal -0.45399 -0.891007 -0
    outer loop
      vertex 3.62957 4.99568 0
      vertex 3.62957 4.99568 2
      vertex 1.90818 5.87277 2
    endloop
  endfacet
  facet normal -0.45399 -0.891007 -0
    outer loop
      vertex 1.90818 5.87277 0
      vertex 3.62957 4.99568 0
      vertex 1.90818 5.87277 2
    endloop
  endfacet
  facet normal -0.707107 -0.707107 -0
    outer loop
      vertex 4.99568 3.62957 0
      vertex 4.99568 3.62957 2
      vertex 3.62957 4.99568 2
    endloop
  endfacet
  facet normal -0.707107 -0.707107 -0
    outer loop
      vertex 3.62957 4.99568 0
      vertex 4.99568 3.62957 0
      vertex 3.62957 4.99568 2
    endloop
  endfacet
  facet normal -0.891007 -0.45399 0
    outer loop
      vertex 5.87277 1.90818 2
      vertex 4.99568 3.62957 2
      vertex 5.87277 1.90818 0
    endloop
  endfacet
  facet normal -0.891007 -0.45399 0
    outer loop
      vertex 5.87277 1.90818 0
      vertex 4.99568 3.62957 2
      vertex 4.99568 3.62957 0
    endloop
  endfacet
  facet normal -0.987688 -0.156434 0
    outer loop
      vertex 6.175 0 2
      vertex 5.87277 1.90818 2
      vertex 6.175 0 0
    endloop
  endfacet
  facet normal -0.987688 -0.156434 0
    outer loop
      vertex 6.175 0 0
      vertex 5.87277 1.90818 2
      vertex 5.87277 1.90818 0
    endloop
  endfacet
  facet normal -0.987688 0.156434 0
    outer loop
      vertex 6.175 0 2
      vertex 6.175 0 0
      vertex 5.87277 -1.90818 2
    endloop
  endfacet
  facet normal -0.987688 0.156434 0
    outer loop
      vertex 5.87277 -1.90818 2
      vertex 6.175 0 0
      vertex 5.87277 -1.90818 0
    endloop
  endfacet
  facet normal -0.891007 0.45399 0
    outer loop
      vertex 5.87277 -1.90818 2
      vertex 5.87277 -1.90818 0
      vertex 4.99568 -3.62957 2
    endloop
  endfacet
  facet normal -0.891007 0.45399 0
    outer loop
      vertex 4.99568 -3.62957 2
      vertex 5.87277 -1.90818 0
      vertex 4.99568 -3.62957 0
    endloop
  endfacet
  facet normal -0.707107 0.707107 0
    outer loop
      vertex 4.99568 -3.62957 2
      vertex 4.99568 -3.62957 0
      vertex 3.62957 -4.99568 2
    endloop
  endfacet
  facet normal -0.707107 0.707107 0
    outer loop
      vertex 3.62957 -4.99568 2
      vertex 4.99568 -3.62957 0
      vertex 3.62957 -4.99568 0
    endloop
  endfacet
  facet normal -0.45399 0.891007 0
    outer loop
      vertex 3.62957 -4.99568 2
      vertex 3.62957 -4.99568 0
      vertex 1.90818 -5.87277 2
    endloop
  endfacet
  facet normal -0.45399 0.891007 0
    outer loop
      vertex 1.90818 -5.87277 2
      vertex 3.62957 -4.99568 0
      vertex 1.90818 -5.87277 0
    endloop
  endfacet
  facet normal -0.156434 0.987688 0
    outer loop
      vertex 1.90818 -5.87277 2
      vertex 1.90818 -5.87277 0
      vertex 0 -6.175 2
    endloop
  endfacet
  facet normal -0.156434 0.987688 0
    outer loop
      vertex 0 -6.175 2
      vertex 1.90818 -5.87277 0
      vertex 0 -6.175 0
    endloop
  endfacet
  facet normal 0.156434 0.987688 -0
    outer loop
      vertex 0 -6.175 2
      vertex 0 -6.175 0
      vertex -1.90818 -5.87277 2
    endloop
  endfacet
  facet normal 0.156434 0.987688 -0
    outer loop
      vertex -1.90818 -5.87277 2
      vertex 0 -6.175 0
      vertex -1.90818 -5.87277 0
    endloop
  endfacet
  facet normal 0.45399 0.891007 -0
    outer loop
      vertex -1.90818 -5.87277 2
      vertex -1.90818 -5.87277 0
      vertex -3.62957 -4.99568 2
    endloop
  endfacet
  facet normal 0.45399 0.891007 -0
    outer loop
      vertex -3.62957 -4.99568 2
      vertex -1.90818 -5.87277 0
      vertex -3.62957 -4.99568 0
    endloop
  endfacet
  facet normal 0.707107 0.707107 -0
    outer loop
      vertex -3.62957 -4.99568 2
      vertex -3.62957 -4.99568 0
      vertex -4.99568 -3.62957 2
    endloop
  endfacet
  facet normal 0.707107 0.707107 -0
    outer loop
      vertex -4.99568 -3.62957 2
      vertex -3.62957 -4.99568 0
      vertex -4.99568 -3.62957 0
    endloop
  endfacet
  facet normal 0.891007 0.45399 0
    outer loop
      vertex -5.87277 -1.90818 2
      vertex -4.99568 -3.62957 2
      vertex -4.99568 -3.62957 0
    endloop
  endfacet
  facet normal 0.891007 0.45399 0
    outer loop
      vertex -5.87277 -1.90818 0
      vertex -5.87277 -1.90818 2
      vertex -4.99568 -3.62957 0
    endloop
  endfacet
  facet normal 0.980785 -0.195091 0
    outer loop
      vertex 28.6604 0.554891 0
      vertex 28.6604 0.554891 2
      vertex 28.55 0 2
    endloop
  endfacet
  facet normal 0.980785 -0.195091 0
    outer loop
      vertex 28.55 0 0
      vertex 28.6604 0.554891 0
      vertex 28.55 0 2
    endloop
  endfacet
  facet normal 0.980785 0.195091 0
    outer loop
      vertex 28.55 0 2
      vertex 28.6604 -0.554891 2
      vertex 28.6604 -0.554891 0
    endloop
  endfacet
  facet normal 0.980785 0.195091 0
    outer loop
      vertex 28.55 0 0
      vertex 28.55 0 2
      vertex 28.6604 -0.554891 0
    endloop
  endfacet
  facet normal 0.83147 -0.55557 0
    outer loop
      vertex 28.9747 1.0253 0
      vertex 28.9747 1.0253 2
      vertex 28.6604 0.554891 2
    endloop
  endfacet
  facet normal 0.83147 -0.55557 0
    outer loop
      vertex 28.6604 0.554891 0
      vertex 28.9747 1.0253 0
      vertex 28.6604 0.554891 2
    endloop
  endfacet
  facet normal 0.55557 -0.83147 0
    outer loop
      vertex 29.4451 1.33962 0
      vertex 29.4451 1.33962 2
      vertex 28.9747 1.0253 2
    endloop
  endfacet
  facet normal 0.55557 -0.83147 0
    outer loop
      vertex 28.9747 1.0253 0
      vertex 29.4451 1.33962 0
      vertex 28.9747 1.0253 2
    endloop
  endfacet
  facet normal 0.195091 -0.980785 0
    outer loop
      vertex 30 1.45 0
      vertex 30 1.45 2
      vertex 29.4451 1.33962 2
    endloop
  endfacet
  facet normal 0.195091 -0.980785 0
    outer loop
      vertex 29.4451 1.33962 0
      vertex 30 1.45 0
      vertex 29.4451 1.33962 2
    endloop
  endfacet
  facet normal -0.195091 -0.980785 -0
    outer loop
      vertex 30.5549 1.33962 0
      vertex 30.5549 1.33962 2
      vertex 30 1.45 2
    endloop
  endfacet
  facet normal -0.195091 -0.980785 -0
    outer loop
      vertex 30 1.45 0
      vertex 30.5549 1.33962 0
      vertex 30 1.45 2
    endloop
  endfacet
  facet normal -0.55557 -0.83147 -0
    outer loop
      vertex 31.0253 1.0253 0
      vertex 31.0253 1.0253 2
      vertex 30.5549 1.33962 2
    endloop
  endfacet
  facet normal -0.55557 -0.83147 -0
    outer loop
      vertex 30.5549 1.33962 0
      vertex 31.0253 1.0253 0
      vertex 30.5549 1.33962 2
    endloop
  endfacet
  facet normal -0.83147 -0.55557 0
    outer loop
      vertex 31.3396 0.554891 2
      vertex 31.0253 1.0253 2
      vertex 31.3396 0.554891 0
    endloop
  endfacet
  facet normal -0.83147 -0.55557 0
    outer loop
      vertex 31.3396 0.554891 0
      vertex 31.0253 1.0253 2
      vertex 31.0253 1.0253 0
    endloop
  endfacet
  facet normal -0.980785 -0.195091 0
    outer loop
      vertex 31.45 0 2
      vertex 31.3396 0.554891 2
      vertex 31.45 0 0
    endloop
  endfacet
  facet normal -0.980785 -0.195091 0
    outer loop
      vertex 31.45 0 0
      vertex 31.3396 0.554891 2
      vertex 31.3396 0.554891 0
    endloop
  endfacet
  facet normal -0.980785 0.195091 0
    outer loop
      vertex 31.45 0 2
      vertex 31.45 0 0
      vertex 31.3396 -0.554891 2
    endloop
  endfacet
  facet normal -0.980785 0.195091 0
    outer loop
      vertex 31.3396 -0.554891 2
      vertex 31.45 0 0
      vertex 31.3396 -0.554891 0
    endloop
  endfacet
  facet normal -0.83147 0.55557 0
    outer loop
      vertex 31.3396 -0.554891 2
      vertex 31.3396 -0.554891 0
      vertex 31.0253 -1.0253 2
    endloop
  endfacet
  facet normal -0.83147 0.55557 0
    outer loop
      vertex 31.0253 -1.0253 2
      vertex 31.3396 -0.554891 0
      vertex 31.0253 -1.0253 0
    endloop
  endfacet
  facet normal -0.55557 0.83147 0
    outer loop
      vertex 31.0253 -1.0253 2
      vertex 31.0253 -1.0253 0
      vertex 30.5549 -1.33962 2
    endloop
  endfacet
  facet normal -0.55557 0.83147 0
    outer loop
      vertex 30.5549 -1.33962 2
      vertex 31.0253 -1.0253 0
      vertex 30.5549 -1.33962 0
    endloop
  endfacet
  facet normal -0.195091 0.980785 0
    outer loop
      vertex 30.5549 -1.33962 2
      vertex 30.5549 -1.33962 0
      vertex 30 -1.45 2
    endloop
  endfacet
  facet normal -0.195091 0.980785 0
    outer loop
      vertex 30 -1.45 2
      vertex 30.5549 -1.33962 0
      vertex 30 -1.45 0
    endloop
  endfacet
  facet normal 0.195091 0.980785 -0
    outer loop
      vertex 30 -1.45 2
      vertex 30 -1.45 0
      vertex 29.4451 -1.33962 2
    endloop
  endfacet
  facet normal 0.195091 0.980785 -0
    outer loop
      vertex 29.4451 -1.33962 2
      vertex 30 -1.45 0
      vertex 29.4451 -1.33962 0
    endloop
  endfacet
  facet normal 0.55557 0.83147 -0
    outer loop
      vertex 29.4451 -1.33962 2
      vertex 29.4451 -1.33962 0
      vertex 28.9747 -1.0253 2
    endloop
  endfacet
  facet normal 0.55557 0.83147 -0
    outer loop
      vertex 28.9747 -1.0253 2
      vertex 29.4451 -1.33962 0
      vertex 28.9747 -1.0253 0
    endloop
  endfacet
  facet normal 0.83147 0.55557 0
    outer loop
      vertex 28.6604 -0.554891 2
      vertex 28.9747 -1.0253 2
      vertex 28.9747 -1.0253 0
    endloop
  endfacet
  facet normal 0.83147 0.55557 0
    outer loop
      vertex 28.6604 -0.554891 0
      vertex 28.6604 -0.554891 2
      vertex 28.9747 -1.0253 0
    endloop
  endfacet
  facet normal 0 0 1
    outer loop
      vertex -34.2352 7.27691 2
      vertex -35 0 2
      vertex -34.2352 -7.27691 2
    endloop
  endfacet
  facet normal 0 0 1
    outer loop
      vertex -28.3156 -20.5725 2
      vertex -34.2352 7.27691 2
      vertex -31.9741 -14.2358 2
    endloop
  endfacet
  facet normal 0 0 1
    outer loop
      vertex -31.9741 -14.2358 2
      vertex -34.2352 7.27691 2
      vertex -34.2352 -7.27691 2
    endloop
  endfacet
  facet normal 0 0 1
    outer loop
      vertex -23.4196 -26.0101 2
      vertex -34.2352 7.27691 2
      vertex -28.3156 -20.5725 2
    endloop
  endfacet
  facet normal -0 -0 1
    outer loop
      vertex -31.3396 -0.554891 2
      vertex -34.2352 7.27691 2
      vertex -23.4196 -26.0101 2
    endloop
  endfacet
  facet normal -0 0 1
    outer loop
      vertex 10.8156 -33.287 2
      vertex -34.2352 7.27691 2
      vertex 3.6585 -34.8083 2
    endloop
  endfacet
  facet normal -0 0 1
    outer loop
      vertex 17.5 -30.3109 2
      vertex -34.2352 7.27691 2
      vertex 10.8156 -33.287 2
    endloop
  endfacet
  facet normal -0 0 1
    outer loop
      vertex 23.4196 -26.0101 2
      vertex -34.2352 7.27691 2
      vertex 17.5 -30.3109 2
    endloop
  endfacet
  facet normal -0 0 1
    outer loop
      vertex 28.3156 -20.5725 2
      vertex -34.2352 7.27691 2
      vertex 23.4196 -26.0101 2
    endloop
  endfacet
  facet normal -0 -0 1
    outer loop
      vertex -1.90818 -5.87277 2
      vertex -34.2352 7.27691 2
      vertex 28.3156 -20.5725 2
    endloop
  endfacet
  facet normal 0 0 1
    outer loop
      vertex 0 6.175 2
      vertex 1.90818 5.87277 2
      vertex 34.2352 7.27691 2
    endloop
  endfacet
  facet normal 0 -0 1
    outer loop
      vertex 31.9741 14.2358 2
      vertex -34.2352 7.27691 2
      vertex 34.2352 7.27691 2
    endloop
  endfacet
  facet normal 0 -0 1
    outer loop
      vertex 28.3156 20.5725 2
      vertex -34.2352 7.27691 2
      vertex 31.9741 14.2358 2
    endloop
  endfacet
  facet normal 0 -0 1
    outer loop
      vertex 23.4196 26.0101 2
      vertex -34.2352 7.27691 2
      vertex 28.3156 20.5725 2
    endloop
  endfacet
  facet normal 0 -0 1
    outer loop
      vertex 17.5 30.3109 2
      vertex -34.2352 7.27691 2
      vertex 23.4196 26.0101 2
    endloop
  endfacet
  facet normal 0 -0 1
    outer loop
      vertex 10.8156 33.287 2
      vertex -34.2352 7.27691 2
      vertex 17.5 30.3109 2
    endloop
  endfacet
  facet normal 0 -0 1
    outer loop
      vertex 3.6585 34.8083 2
      vertex -34.2352 7.27691 2
      vertex 10.8156 33.287 2
    endloop
  endfacet
  facet normal 0 -0 1
    outer loop
      vertex -3.6585 34.8083 2
      vertex -34.2352 7.27691 2
      vertex 3.6585 34.8083 2
    endloop
  endfacet
  facet normal 0 -0 1
    outer loop
      vertex -10.8156 33.287 2
      vertex -34.2352 7.27691 2
      vertex -3.6585 34.8083 2
    endloop
  endfacet
  facet normal 0 -0 1
    outer loop
      vertex -17.5 30.3109 2
      vertex -34.2352 7.27691 2
      vertex -10.8156 33.287 2
    endloop
  endfacet
  facet normal 0 -0 1
    outer loop
      vertex -23.4196 26.0101 2
      vertex -34.2352 7.27691 2
      vertex -17.5 30.3109 2
    endloop
  endfacet
  facet normal 0 -0 1
    outer loop
      vertex -28.3156 20.5725 2
      vertex -34.2352 7.27691 2
      vertex -23.4196 26.0101 2
    endloop
  endfacet
  facet normal 0 -0 1
    outer loop
      vertex -31.9741 14.2358 2
      vertex -34.2352 7.27691 2
      vertex -28.3156 20.5725 2
    endloop
  endfacet
  facet normal 0 0 1
    outer loop
      vertex -17.5 -30.3109 2
      vertex -31.3396 -0.554891 2
      vertex -23.4196 -26.0101 2
    endloop
  endfacet
  facet normal -0 -0 1
    outer loop
      vertex -31.45 0 2
      vertex -34.2352 7.27691 2
      vertex -31.3396 -0.554891 2
    endloop
  endfacet
  facet normal -0 0 1
    outer loop
      vertex -31.3396 0.554891 2
      vertex -34.2352 7.27691 2
      vertex -31.45 0 2
    endloop
  endfacet
  facet normal 0 0 1
    outer loop
      vertex -31.0253 1.0253 2
      vertex -30.5549 1.33962 2
      vertex -34.2352 7.27691 2
    endloop
  endfacet
  facet normal -0 -0 1
    outer loop
      vertex -30 -1.45 2
      vertex -30.5549 -1.33962 2
      vertex -17.5 -30.3109 2
    endloop
  endfacet
  facet normal 0 0 1
    outer loop
      vertex -30.5549 1.33962 2
      vertex -30 1.45 2
      vertex -34.2352 7.27691 2
    endloop
  endfacet
  facet normal 0 0 1
    outer loop
      vertex -29.4451 -1.33962 2
      vertex -17.5 -30.3109 2
      vertex -10.8156 -33.287 2
    endloop
  endfacet
  facet normal 0 -0 1
    outer loop
      vertex -28.55 0 2
      vertex -28.6604 -0.554891 2
      vertex -3.6585 -34.8083 2
    endloop
  endfacet
  facet normal 0 -0 1
    outer loop
      vertex -28.6604 -0.554891 2
      vertex -28.9747 -1.0253 2
      vertex -3.6585 -34.8083 2
    endloop
  endfacet
  facet normal 0 0 1
    outer loop
      vertex -29.4451 1.33962 2
      vertex -34.2352 7.27691 2
      vertex -30 1.45 2
    endloop
  endfacet
  facet normal 0 0 1
    outer loop
      vertex -28.9747 1.0253 2
      vertex -34.2352 7.27691 2
      vertex -29.4451 1.33962 2
    endloop
  endfacet
  facet normal 0 0 1
    outer loop
      vertex 3.6585 -34.8083 2
      vertex -34.2352 7.27691 2
      vertex -28.9747 1.0253 2
    endloop
  endfacet
  facet normal 0 0 1
    outer loop
      vertex -28.55 0 2
      vertex -3.6585 -34.8083 2
      vertex 3.6585 -34.8083 2
    endloop
  endfacet
  facet normal 0 0 1
    outer loop
      vertex 3.6585 -34.8083 2
      vertex -28.9747 1.0253 2
      vertex -28.6604 0.554891 2
    endloop
  endfacet
  facet normal 0 -0 1
    outer loop
      vertex -29.4451 -1.33962 2
      vertex -30 -1.45 2
      vertex -17.5 -30.3109 2
    endloop
  endfacet
  facet normal 0 -0 1
    outer loop
      vertex -28.9747 -1.0253 2
      vertex -29.4451 -1.33962 2
      vertex -10.8156 -33.287 2
    endloop
  endfacet
  facet normal 0 0 1
    outer loop
      vertex -28.6604 0.554891 2
      vertex -28.55 0 2
      vertex 3.6585 -34.8083 2
    endloop
  endfacet
  facet normal 0 0 1
    outer loop
      vertex -3.6585 -34.8083 2
      vertex -28.9747 -1.0253 2
      vertex -10.8156 -33.287 2
    endloop
  endfacet
  facet normal 0 0 1
    outer loop
      vertex -4.99568 -3.62957 2
      vertex -5.87277 -1.90818 2
      vertex -34.2352 7.27691 2
    endloop
  endfacet
  facet normal 0 0 1
    outer loop
      vertex -17.5 -30.3109 2
      vertex -31.0253 -1.0253 2
      vertex -31.3396 -0.554891 2
    endloop
  endfacet
  facet normal 0 0 1
    outer loop
      vertex -3.62957 -4.99568 2
      vertex -4.99568 -3.62957 2
      vertex -34.2352 7.27691 2
    endloop
  endfacet
  facet normal -0 -0 1
    outer loop
      vertex -6.175 0 2
      vertex -34.2352 7.27691 2
      vertex -5.87277 -1.90818 2
    endloop
  endfacet
  facet normal 0 -0 1
    outer loop
      vertex 3.62957 -4.99568 2
      vertex 1.90818 -5.87277 2
      vertex 31.9741 -14.2358 2
    endloop
  endfacet
  facet normal 0 0 1
    outer loop
      vertex -4.99568 3.62957 2
      vertex -3.62957 4.99568 2
      vertex -34.2352 7.27691 2
    endloop
  endfacet
  facet normal -0 0 1
    outer loop
      vertex -4.99568 3.62957 2
      vertex -34.2352 7.27691 2
      vertex -5.87277 1.90818 2
    endloop
  endfacet
  facet normal 0 0 1
    outer loop
      vertex 31.0253 1.0253 2
      vertex 31.3396 0.554891 2
      vertex 35 0 2
    endloop
  endfacet
  facet normal -0 0 1
    outer loop
      vertex -1.90818 5.87277 2
      vertex -34.2352 7.27691 2
      vertex -3.62957 4.99568 2
    endloop
  endfacet
  facet normal -0 0 1
    outer loop
      vertex 0 6.175 2
      vertex -34.2352 7.27691 2
      vertex -1.90818 5.87277 2
    endloop
  endfacet
  facet normal 0 0 1
    outer loop
      vertex 1.90818 5.87277 2
      vertex 3.62957 4.99568 2
      vertex 34.2352 7.27691 2
    endloop
  endfacet
  facet normal 0 0 1
    outer loop
      vertex 34.2352 7.27691 2
      vertex -34.2352 7.27691 2
      vertex 0 6.175 2
    endloop
  endfacet
  facet normal 0 0 1
    outer loop
      vertex 28.6604 0.554891 2
      vertex 3.62957 4.99568 2
      vertex 4.99568 3.62957 2
    endloop
  endfacet
  facet normal -0 -0 1
    outer loop
      vertex 28.9747 -1.0253 2
      vertex 6.175 0 2
      vertex 34.2352 -7.27691 2
    endloop
  endfacet
  facet normal 0 0 1
    outer loop
      vertex 28.55 0 2
      vertex 28.6604 0.554891 2
      vertex 5.87277 1.90818 2
    endloop
  endfacet
  facet normal -0 0 1
    outer loop
      vertex 34.2352 -7.27691 2
      vertex 4.99568 -3.62957 2
      vertex 31.9741 -14.2358 2
    endloop
  endfacet
  facet normal 0 -0 1
    outer loop
      vertex 4.99568 -3.62957 2
      vertex 3.62957 -4.99568 2
      vertex 31.9741 -14.2358 2
    endloop
  endfacet
  facet normal -0 0 1
    outer loop
      vertex 31.9741 -14.2358 2
      vertex 1.90818 -5.87277 2
      vertex 28.3156 -20.5725 2
    endloop
  endfacet
  facet normal 0 -0 1
    outer loop
      vertex 1.90818 -5.87277 2
      vertex 0 -6.175 2
      vertex 28.3156 -20.5725 2
    endloop
  endfacet
  facet normal -0 -0 1
    outer loop
      vertex 0 -6.175 2
      vertex -1.90818 -5.87277 2
      vertex 28.3156 -20.5725 2
    endloop
  endfacet
  facet normal -0 -0 1
    outer loop
      vertex -3.62957 -4.99568 2
      vertex -34.2352 7.27691 2
      vertex -1.90818 -5.87277 2
    endloop
  endfacet
  facet normal 0 0 1
    outer loop
      vertex -6.175 0 2
      vertex -5.87277 1.90818 2
      vertex -34.2352 7.27691 2
    endloop
  endfacet
  facet normal -0 -0 1
    outer loop
      vertex 29.4451 -1.33962 2
      vertex 28.9747 -1.0253 2
      vertex 34.2352 -7.27691 2
    endloop
  endfacet
  facet normal 0 0 1
    outer loop
      vertex 28.6604 -0.554891 2
      vertex 28.55 0 2
      vertex 6.175 0 2
    endloop
  endfacet
  facet normal 0 -0 1
    outer loop
      vertex 6.175 0 2
      vertex 5.87277 -1.90818 2
      vertex 34.2352 -7.27691 2
    endloop
  endfacet
  facet normal 0 -0 1
    outer loop
      vertex 31.45 0 2
      vertex 31.3396 -0.554891 2
      vertex 35 0 2
    endloop
  endfacet
  facet normal 0 0 1
    outer loop
      vertex 31.3396 0.554891 2
      vertex 31.45 0 2
      vertex 35 0 2
    endloop
  endfacet
  facet normal 0 0 1
    outer loop
      vertex 34.2352 7.27691 2
      vertex 3.62957 4.99568 2
      vertex 28.9747 1.0253 2
    endloop
  endfacet
  facet normal 0 0 1
    outer loop
      vertex 34.2352 7.27691 2
      vertex 28.9747 1.0253 2
      vertex 29.4451 1.33962 2
    endloop
  endfacet
  facet normal 0 0 1
    outer loop
      vertex 34.2352 7.27691 2
      vertex 29.4451 1.33962 2
      vertex 30 1.45 2
    endloop
  endfacet
  facet normal 0 -0 1
    outer loop
      vertex 34.2352 7.27691 2
      vertex 30.5549 1.33962 2
      vertex 35 0 2
    endloop
  endfacet
  facet normal 0 0 1
    outer loop
      vertex 34.2352 7.27691 2
      vertex 30 1.45 2
      vertex 30.5549 1.33962 2
    endloop
  endfacet
  facet normal 0 0 1
    outer loop
      vertex 30.5549 1.33962 2
      vertex 31.0253 1.0253 2
      vertex 35 0 2
    endloop
  endfacet
  facet normal 0 0 1
    outer loop
      vertex 4.99568 3.62957 2
      vertex 5.87277 1.90818 2
      vertex 28.6604 0.554891 2
    endloop
  endfacet
  facet normal 0 -0 1
    outer loop
      vertex 5.87277 -1.90818 2
      vertex 4.99568 -3.62957 2
      vertex 34.2352 -7.27691 2
    endloop
  endfacet
  facet normal 0 0 1
    outer loop
      vertex 35 0 2
      vertex 31.3396 -0.554891 2
      vertex 34.2352 -7.27691 2
    endloop
  endfacet
  facet normal 0 -0 1
    outer loop
      vertex 31.3396 -0.554891 2
      vertex 31.0253 -1.0253 2
      vertex 34.2352 -7.27691 2
    endloop
  endfacet
  facet normal 0 -0 1
    outer loop
      vertex 31.0253 -1.0253 2
      vertex 30.5549 -1.33962 2
      vertex 34.2352 -7.27691 2
    endloop
  endfacet
  facet normal 0 -0 1
    outer loop
      vertex 30.5549 -1.33962 2
      vertex 30 -1.45 2
      vertex 34.2352 -7.27691 2
    endloop
  endfacet
  facet normal -0 -0 1
    outer loop
      vertex 30 -1.45 2
      vertex 29.4451 -1.33962 2
      vertex 34.2352 -7.27691 2
    endloop
  endfacet
  facet normal -0 -0 1
    outer loop
      vertex 28.6604 -0.554891 2
      vertex 6.175 0 2
      vertex 28.9747 -1.0253 2
    endloop
  endfacet
  facet normal -0 -0 1
    outer loop
      vertex -30.5549 -1.33962 2
      vertex -31.0253 -1.0253 2
      vertex -17.5 -30.3109 2
    endloop
  endfacet
  facet normal 0 0 1
    outer loop
      vertex -31.3396 0.554891 2
      vertex -31.0253 1.0253 2
      vertex -34.2352 7.27691 2
    endloop
  endfacet
  facet normal 0 0 1
    outer loop
      vertex 5.87277 1.90818 2
      vertex 6.175 0 2
      vertex 28.55 0 2
    endloop
  endfacet
  facet normal 0 0 1
    outer loop
      vertex 28.6604 0.554891 2
      vertex 28.9747 1.0253 2
      vertex 3.62957 4.99568 2
    endloop
  endfacet
endsolid OpenSCAD_Model
