solid OpenSCAD_Model
  facet normal -0.987688 -0.156434 0
    outer loop
      vertex -6.33333 0 0
      vertex -6.02336 -1.95711 0
      vertex -6.33333 0 10
    endloop
  endfacet
  facet normal -0.987688 -0.156434 0
    outer loop
      vertex -6.33333 0 10
      vertex -6.02336 -1.95711 0
      vertex -6.02336 -1.95711 10
    endloop
  endfacet
  facet normal 0 0 -1
    outer loop
      vertex -6.33333 0 0
      vertex -6.02336 1.95711 0
      vertex -6.02336 -1.95711 0
    endloop
  endfacet
  facet normal 0 0 -1
    outer loop
      vertex -6.02336 -1.95711 0
      vertex -6.02336 1.95711 0
      vertex -5.12377 3.72264 0
    endloop
  endfacet
  facet normal 0 0 -1
    outer loop
      vertex -6.02336 -1.95711 0
      vertex -5.12377 3.72264 0
      vertex -3.72264 5.12377 0
    endloop
  endfacet
  facet normal 0 0 -1
    outer loop
      vertex 0 5 0
      vertex -3.72264 5.12377 0
      vertex 15.25 17.7535 0
    endloop
  endfacet
  facet normal 0 0 -1
    outer loop
      vertex 1.91342 4.6194 0
      vertex 19.1652 19.4967 0
      vertex 23.3572 20.3877 0
    endloop
  endfacet
  facet normal 0 0 -1
    outer loop
      vertex 20.0922 16.6435 0
      vertex 23.3572 20.3877 0
      vertex 27.6428 20.3877 0
    endloop
  endfacet
  facet normal 0 0 -1
    outer loop
      vertex 27.3292 17.4041 0
      vertex 27.6428 20.3877 0
      vertex 31.8348 19.4967 0
    endloop
  endfacet
  facet normal 0 0 -1
    outer loop
      vertex 30.9078 16.6435 0
      vertex 31.8348 19.4967 0
      vertex 35.75 17.7535 0
    endloop
  endfacet
  facet normal 0 0 -1
    outer loop
      vertex 34.25 15.1554 0
      vertex 35.75 17.7535 0
      vertex 39.2172 15.2345 0
    endloop
  endfacet
  facet normal 0 0 -1
    outer loop
      vertex 37.2098 13.005 0
      vertex 39.2172 15.2345 0
      vertex 42.0848 12.0496 0
    endloop
  endfacet
  facet normal 0 0 -1
    outer loop
      vertex 39.6578 10.2862 0
      vertex 42.0848 12.0496 0
      vertex 44.2277 8.3381 0
    endloop
  endfacet
  facet normal 0 0 -1
    outer loop
      vertex 41.487 7.11789 0
      vertex 44.2277 8.3381 0
      vertex 45.552 4.26219 0
    endloop
  endfacet
  facet normal 0 0 -1
    outer loop
      vertex 43 0 0
      vertex 45.552 4.26219 0
      vertex 46 0 0
    endloop
  endfacet
  facet normal 0 0 -1
    outer loop
      vertex 42.6176 -3.63845 0
      vertex 46 0 0
      vertex 45.552 -4.26219 0
    endloop
  endfacet
  facet normal 0 0 -1
    outer loop
      vertex 41.487 -7.11789 0
      vertex 45.552 -4.26219 0
      vertex 44.2277 -8.3381 0
    endloop
  endfacet
  facet normal 0 0 -1
    outer loop
      vertex 39.6578 -10.2862 0
      vertex 44.2277 -8.3381 0
      vertex 42.0848 -12.0496 0
    endloop
  endfacet
  facet normal 0 0 -1
    outer loop
      vertex 37.2098 -13.005 0
      vertex 42.0848 -12.0496 0
      vertex 39.2172 -15.2345 0
    endloop
  endfacet
  facet normal 0 0 -1
    outer loop
      vertex 34.25 -15.1554 0
      vertex 39.2172 -15.2345 0
      vertex 35.75 -17.7535 0
    endloop
  endfacet
  facet normal 0 0 -1
    outer loop
      vertex 27.3292 -17.4041 0
      vertex 35.75 -17.7535 0
      vertex 31.8348 -19.4967 0
    endloop
  endfacet
  facet normal 0 0 -1
    outer loop
      vertex 23.6708 -17.4041 0
      vertex 31.8348 -19.4967 0
      vertex 27.6428 -20.3877 0
    endloop
  endfacet
  facet normal 0 0 -1
    outer loop
      vertex 16.75 -15.1554 0
      vertex 27.6428 -20.3877 0
      vertex 23.3572 -20.3877 0
    endloop
  endfacet
  facet normal 0 0 -1
    outer loop
      vertex -1.91342 -4.6194 0
      vertex 23.3572 -20.3877 0
      vertex 19.1652 -19.4967 0
    endloop
  endfacet
  facet normal 0 0 -1
    outer loop
      vertex -6.02336 -1.95711 0
      vertex 19.1652 -19.4967 0
      vertex 15.25 -17.7535 0
    endloop
  endfacet
  facet normal 0 0 -1
    outer loop
      vertex -6.02336 -1.95711 0
      vertex 15.25 -17.7535 0
      vertex -3.72264 -5.12377 0
    endloop
  endfacet
  facet normal 0 0 -1
    outer loop
      vertex -6.02336 -1.95711 0
      vertex -3.72264 -5.12377 0
      vertex -5.12377 -3.72264 0
    endloop
  endfacet
  facet normal 0 0 -1
    outer loop
      vertex 8 0 0
      vertex 5 0 0
      vertex 4.6194 1.91342 0
    endloop
  endfacet
  facet normal 0 0 -1
    outer loop
      vertex -3.53553 -3.53553 0
      vertex -6.02336 -1.95711 0
      vertex -4.6194 -1.91342 0
    endloop
  endfacet
  facet normal 0 0 -1
    outer loop
      vertex 0 -5 0
      vertex 23.3572 -20.3877 0
      vertex -1.91342 -4.6194 0
    endloop
  endfacet
  facet normal 0 0 -1
    outer loop
      vertex -6.02336 -1.95711 0
      vertex -3.53553 -3.53553 0
      vertex 19.1652 -19.4967 0
    endloop
  endfacet
  facet normal 0 0 -1
    outer loop
      vertex -3.53553 -3.53553 0
      vertex -1.91342 -4.6194 0
      vertex 19.1652 -19.4967 0
    endloop
  endfacet
  facet normal 0 0 -1
    outer loop
      vertex 41.487 -7.11789 0
      vertex 44.2277 -8.3381 0
      vertex 39.6578 -10.2862 0
    endloop
  endfacet
  facet normal 0 0 -1
    outer loop
      vertex 8.38242 -3.63845 0
      vertex 4.6194 -1.91342 0
      vertex 8 0 0
    endloop
  endfacet
  facet normal 0 0 -1
    outer loop
      vertex -1.91342 4.6194 0
      vertex -3.72264 5.12377 0
      vertex 0 5 0
    endloop
  endfacet
  facet normal 0 0 -1
    outer loop
      vertex -4.6194 1.91342 0
      vertex -3.72264 5.12377 0
      vertex -3.53553 3.53553 0
    endloop
  endfacet
  facet normal 0 0 -1
    outer loop
      vertex -3.53553 3.53553 0
      vertex -3.72264 5.12377 0
      vertex -1.91342 4.6194 0
    endloop
  endfacet
  facet normal 0 0 -1
    outer loop
      vertex 8 0 0
      vertex 4.6194 1.91342 0
      vertex 8.38242 3.63845 0
    endloop
  endfacet
  facet normal 0 0 -1
    outer loop
      vertex -6.02336 -1.95711 0
      vertex -3.72264 5.12377 0
      vertex -4.6194 1.91342 0
    endloop
  endfacet
  facet normal 0 0 -1
    outer loop
      vertex -6.02336 -1.95711 0
      vertex -4.6194 1.91342 0
      vertex -5 0 0
    endloop
  endfacet
  facet normal 0 0 -1
    outer loop
      vertex 4.6194 -1.91342 0
      vertex 8.38242 -3.63845 0
      vertex 3.53553 -3.53553 0
    endloop
  endfacet
  facet normal 0 0 -1
    outer loop
      vertex 9.51295 -7.11789 0
      vertex 1.91342 -4.6194 0
      vertex 3.53553 -3.53553 0
    endloop
  endfacet
  facet normal 0 0 -1
    outer loop
      vertex 11.3422 -10.2862 0
      vertex 0 -5 0
      vertex 1.91342 -4.6194 0
    endloop
  endfacet
  facet normal 0 0 -1
    outer loop
      vertex 13.7902 -13.005 0
      vertex 0 -5 0
      vertex 11.3422 -10.2862 0
    endloop
  endfacet
  facet normal 0 0 -1
    outer loop
      vertex 20.0922 -16.6435 0
      vertex 27.6428 -20.3877 0
      vertex 16.75 -15.1554 0
    endloop
  endfacet
  facet normal 0 0 -1
    outer loop
      vertex 13.7902 -13.005 0
      vertex 16.75 -15.1554 0
      vertex 23.3572 -20.3877 0
    endloop
  endfacet
  facet normal 0 0 -1
    outer loop
      vertex 27.3292 -17.4041 0
      vertex 31.8348 -19.4967 0
      vertex 23.6708 -17.4041 0
    endloop
  endfacet
  facet normal 0 0 -1
    outer loop
      vertex 30.9078 -16.6435 0
      vertex 35.75 -17.7535 0
      vertex 27.3292 -17.4041 0
    endloop
  endfacet
  facet normal 0 0 -1
    outer loop
      vertex 37.2098 13.005 0
      vertex 42.0848 12.0496 0
      vertex 39.6578 10.2862 0
    endloop
  endfacet
  facet normal 0 0 -1
    outer loop
      vertex 39.6578 10.2862 0
      vertex 44.2277 8.3381 0
      vertex 41.487 7.11789 0
    endloop
  endfacet
  facet normal 0 0 -1
    outer loop
      vertex 37.2098 -13.005 0
      vertex 39.2172 -15.2345 0
      vertex 34.25 -15.1554 0
    endloop
  endfacet
  facet normal 0 0 -1
    outer loop
      vertex 34.25 -15.1554 0
      vertex 35.75 -17.7535 0
      vertex 30.9078 -16.6435 0
    endloop
  endfacet
  facet normal 0 0 -1
    outer loop
      vertex 42.6176 -3.63845 0
      vertex 45.552 -4.26219 0
      vertex 41.487 -7.11789 0
    endloop
  endfacet
  facet normal 0 0 -1
    outer loop
      vertex 9.51295 -7.11789 0
      vertex 3.53553 -3.53553 0
      vertex 8.38242 -3.63845 0
    endloop
  endfacet
  facet normal 0 0 -1
    outer loop
      vertex 42.6176 3.63845 0
      vertex 45.552 4.26219 0
      vertex 43 0 0
    endloop
  endfacet
  facet normal 0 0 -1
    outer loop
      vertex 5 0 0
      vertex 8 0 0
      vertex 4.6194 -1.91342 0
    endloop
  endfacet
  facet normal 0 0 -1
    outer loop
      vertex 43 0 0
      vertex 46 0 0
      vertex 42.6176 -3.63845 0
    endloop
  endfacet
  facet normal 0 0 -1
    outer loop
      vertex 23.6708 -17.4041 0
      vertex 27.6428 -20.3877 0
      vertex 20.0922 -16.6435 0
    endloop
  endfacet
  facet normal 0 0 -1
    outer loop
      vertex 30.9078 16.6435 0
      vertex 35.75 17.7535 0
      vertex 34.25 15.1554 0
    endloop
  endfacet
  facet normal 0 0 -1
    outer loop
      vertex 0 -5 0
      vertex 13.7902 -13.005 0
      vertex 23.3572 -20.3877 0
    endloop
  endfacet
  facet normal 0 0 -1
    outer loop
      vertex 23.6708 17.4041 0
      vertex 27.6428 20.3877 0
      vertex 27.3292 17.4041 0
    endloop
  endfacet
  facet normal 0 0 -1
    outer loop
      vertex 20.0922 16.6435 0
      vertex 27.6428 20.3877 0
      vertex 23.6708 17.4041 0
    endloop
  endfacet
  facet normal 0 0 -1
    outer loop
      vertex 16.75 15.1554 0
      vertex 23.3572 20.3877 0
      vertex 20.0922 16.6435 0
    endloop
  endfacet
  facet normal 0 0 -1
    outer loop
      vertex 11.3422 10.2862 0
      vertex 1.91342 4.6194 0
      vertex 13.7902 13.005 0
    endloop
  endfacet
  facet normal 0 0 -1
    outer loop
      vertex 13.7902 13.005 0
      vertex 23.3572 20.3877 0
      vertex 16.75 15.1554 0
    endloop
  endfacet
  facet normal 0 0 -1
    outer loop
      vertex 8.38242 3.63845 0
      vertex 3.53553 3.53553 0
      vertex 9.51295 7.11789 0
    endloop
  endfacet
  facet normal 0 0 -1
    outer loop
      vertex 11.3422 -10.2862 0
      vertex 1.91342 -4.6194 0
      vertex 9.51295 -7.11789 0
    endloop
  endfacet
  facet normal 0 0 -1
    outer loop
      vertex -4.6194 -1.91342 0
      vertex -6.02336 -1.95711 0
      vertex -5 0 0
    endloop
  endfacet
  facet normal 0 0 -1
    outer loop
      vertex 1.91342 4.6194 0
      vertex 23.3572 20.3877 0
      vertex 13.7902 13.005 0
    endloop
  endfacet
  facet normal 0 0 -1
    outer loop
      vertex 0 5 0
      vertex 15.25 17.7535 0
      vertex 19.1652 19.4967 0
    endloop
  endfacet
  facet normal 0 0 -1
    outer loop
      vertex 0 5 0
      vertex 19.1652 19.4967 0
      vertex 1.91342 4.6194 0
    endloop
  endfacet
  facet normal 0 0 -1
    outer loop
      vertex 34.25 15.1554 0
      vertex 39.2172 15.2345 0
      vertex 37.2098 13.005 0
    endloop
  endfacet
  facet normal 0 0 -1
    outer loop
      vertex 27.3292 17.4041 0
      vertex 31.8348 19.4967 0
      vertex 30.9078 16.6435 0
    endloop
  endfacet
  facet normal 0 0 -1
    outer loop
      vertex 9.51295 7.11789 0
      vertex 3.53553 3.53553 0
      vertex 11.3422 10.2862 0
    endloop
  endfacet
  facet normal 0 0 -1
    outer loop
      vertex 1.91342 4.6194 0
      vertex 11.3422 10.2862 0
      vertex 3.53553 3.53553 0
    endloop
  endfacet
  facet normal 0 0 -1
    outer loop
      vertex 39.6578 -10.2862 0
      vertex 42.0848 -12.0496 0
      vertex 37.2098 -13.005 0
    endloop
  endfacet
  facet normal 0 0 -1
    outer loop
      vertex 3.53553 3.53553 0
      vertex 8.38242 3.63845 0
      vertex 4.6194 1.91342 0
    endloop
  endfacet
  facet normal 0 0 -1
    outer loop
      vertex 41.487 7.11789 0
      vertex 45.552 4.26219 0
      vertex 42.6176 3.63845 0
    endloop
  endfacet
  facet normal -0.987688 0.156434 0
    outer loop
      vertex -6.33333 0 0
      vertex -6.33333 0 10
      vertex -6.02336 1.95711 0
    endloop
  endfacet
  facet normal -0.987688 0.156434 0
    outer loop
      vertex -6.02336 1.95711 0
      vertex -6.33333 0 10
      vertex -6.02336 1.95711 10
    endloop
  endfacet
  facet normal -0.866407 0.091063 0.490964
    outer loop
      vertex -4.89661 0.519771 12.439
      vertex -6.33333 0 10
      vertex -5 0 12.3529
    endloop
  endfacet
  facet normal -0.866407 -0.091063 0.490964
    outer loop
      vertex -5 0 12.3529
      vertex -6.33333 0 10
      vertex -4.89661 -0.519771 12.439
    endloop
  endfacet
  facet normal -0.865985 -0.137158 0.480892
    outer loop
      vertex -6.33333 0 10
      vertex -6.02336 -1.95711 10
      vertex -4.89661 -0.519771 12.439
    endloop
  endfacet
  facet normal -0.865985 -0.137158 0.480892
    outer loop
      vertex -4.6194 -1.91342 12.5407
      vertex -6.02336 -1.95711 10
      vertex -4.36794 -2.28975 12.8862
    endloop
  endfacet
  facet normal -0.865985 -0.137158 0.480892
    outer loop
      vertex -4.89661 -0.519771 12.439
      vertex -6.02336 -1.95711 10
      vertex -4.6194 -1.91342 12.5407
    endloop
  endfacet
  facet normal -0.865985 0.137158 0.480892
    outer loop
      vertex -6.33333 0 10
      vertex -4.89661 0.519771 12.439
      vertex -6.02336 1.95711 10
    endloop
  endfacet
  facet normal -0.865985 0.137158 0.480892
    outer loop
      vertex -6.02336 1.95711 10
      vertex -4.89661 0.519771 12.439
      vertex -4.6194 1.91342 12.5407
    endloop
  endfacet
  facet normal -0.865985 0.137158 0.480892
    outer loop
      vertex -6.02336 1.95711 10
      vertex -4.6194 1.91342 12.5407
      vertex -4.36794 2.28975 12.8862
    endloop
  endfacet
  facet normal -0.847276 -0.275297 0.45424
    outer loop
      vertex -4.36794 -2.28975 12.8862
      vertex -6.02336 -1.95711 10
      vertex -3.87403 -3.02894 13.3595
    endloop
  endfacet
  facet normal -0.81996 -0.417791 0.391301
    outer loop
      vertex -6.02336 -1.95711 10
      vertex -5.12377 -3.72264 10
      vertex -3.87403 -3.02894 13.3595
    endloop
  endfacet
  facet normal -0.81996 -0.417791 0.391301
    outer loop
      vertex -1.91342 -4.6194 15.7697
      vertex -5.12377 -3.72264 10
      vertex 6.77232 -8.3381 30
    endloop
  endfacet
  facet normal -0.81996 -0.417791 0.391301
    outer loop
      vertex 0.0561106 -4.98884 19.5024
      vertex 0 -5 19.3729
      vertex 6.77232 -8.3381 30
    endloop
  endfacet
  facet normal -0.81996 -0.417791 0.391301
    outer loop
      vertex 0 -5 19.3729
      vertex -1.91342 -4.6194 15.7697
      vertex 6.77232 -8.3381 30
    endloop
  endfacet
  facet normal -0.81996 -0.417791 0.391301
    outer loop
      vertex -3.87403 -3.02894 13.3595
      vertex -5.12377 -3.72264 10
      vertex -3.53553 -3.53553 13.5279
    endloop
  endfacet
  facet normal -0.81996 -0.417791 0.391301
    outer loop
      vertex -3.53553 -3.53553 13.5279
      vertex -5.12377 -3.72264 10
      vertex -1.91342 -4.6194 15.7697
    endloop
  endfacet
  facet normal -0.891006 -0.453991 0
    outer loop
      vertex -6.02336 -1.95711 0
      vertex -5.12377 -3.72264 0
      vertex -6.02336 -1.95711 10
    endloop
  endfacet
  facet normal -0.891006 -0.453991 0
    outer loop
      vertex -6.02336 -1.95711 10
      vertex -5.12377 -3.72264 0
      vertex -5.12377 -3.72264 10
    endloop
  endfacet
  facet normal -0.707107 -0.707107 0
    outer loop
      vertex -5.12377 -3.72264 10
      vertex -5.12377 -3.72264 0
      vertex -3.72264 -5.12377 0
    endloop
  endfacet
  facet normal -0.707107 -0.707107 0
    outer loop
      vertex -3.72264 -5.12377 10
      vertex -5.12377 -3.72264 10
      vertex -3.72264 -5.12377 0
    endloop
  endfacet
  facet normal -0.554133 -0.832428 0
    outer loop
      vertex -3.72264 -5.12377 10
      vertex -3.72264 -5.12377 0
      vertex 15.25 -17.7535 0
    endloop
  endfacet
  facet normal -0.554133 -0.832428 0
    outer loop
      vertex 15.25 -17.7535 30
      vertex -3.72264 -5.12377 10
      vertex 15.25 -17.7535 0
    endloop
  endfacet
  facet normal -0.406737 -0.913545 0
    outer loop
      vertex 15.25 -17.7535 30
      vertex 15.25 -17.7535 0
      vertex 19.1652 -19.4967 0
    endloop
  endfacet
  facet normal -0.406737 -0.913545 0
    outer loop
      vertex 19.1652 -19.4967 30
      vertex 15.25 -17.7535 30
      vertex 19.1652 -19.4967 0
    endloop
  endfacet
  facet normal -0.207912 -0.978148 0
    outer loop
      vertex 19.1652 -19.4967 30
      vertex 19.1652 -19.4967 0
      vertex 23.3572 -20.3877 0
    endloop
  endfacet
  facet normal -0.207912 -0.978148 0
    outer loop
      vertex 23.3572 -20.3877 30
      vertex 19.1652 -19.4967 30
      vertex 23.3572 -20.3877 0
    endloop
  endfacet
  facet normal 0 -1 0
    outer loop
      vertex 23.3572 -20.3877 30
      vertex 23.3572 -20.3877 0
      vertex 27.6428 -20.3877 0
    endloop
  endfacet
  facet normal 0 -1 0
    outer loop
      vertex 27.6428 -20.3877 30
      vertex 23.3572 -20.3877 30
      vertex 27.6428 -20.3877 0
    endloop
  endfacet
  facet normal 0.207912 -0.978148 0
    outer loop
      vertex 27.6428 -20.3877 30
      vertex 27.6428 -20.3877 0
      vertex 31.8348 -19.4967 0
    endloop
  endfacet
  facet normal 0.207912 -0.978148 0
    outer loop
      vertex 31.8348 -19.4967 30
      vertex 27.6428 -20.3877 30
      vertex 31.8348 -19.4967 0
    endloop
  endfacet
  facet normal 0.406737 -0.913545 0
    outer loop
      vertex 31.8348 -19.4967 30
      vertex 31.8348 -19.4967 0
      vertex 35.75 -17.7535 0
    endloop
  endfacet
  facet normal 0.406737 -0.913545 0
    outer loop
      vertex 35.75 -17.7535 30
      vertex 31.8348 -19.4967 30
      vertex 35.75 -17.7535 0
    endloop
  endfacet
  facet normal 0.587785 -0.809017 0
    outer loop
      vertex 35.75 -17.7535 30
      vertex 35.75 -17.7535 0
      vertex 39.2172 -15.2345 0
    endloop
  endfacet
  facet normal 0.587785 -0.809017 0
    outer loop
      vertex 39.2172 -15.2345 30
      vertex 35.75 -17.7535 30
      vertex 39.2172 -15.2345 0
    endloop
  endfacet
  facet normal 0.743145 -0.669131 0
    outer loop
      vertex 39.2172 -15.2345 30
      vertex 39.2172 -15.2345 0
      vertex 42.0848 -12.0496 0
    endloop
  endfacet
  facet normal 0.743145 -0.669131 0
    outer loop
      vertex 42.0848 -12.0496 30
      vertex 39.2172 -15.2345 30
      vertex 42.0848 -12.0496 0
    endloop
  endfacet
  facet normal 0.866025 -0.5 0
    outer loop
      vertex 42.0848 -12.0496 30
      vertex 42.0848 -12.0496 0
      vertex 44.2277 -8.3381 0
    endloop
  endfacet
  facet normal 0.866025 -0.5 0
    outer loop
      vertex 44.2277 -8.3381 30
      vertex 42.0848 -12.0496 30
      vertex 44.2277 -8.3381 0
    endloop
  endfacet
  facet normal 0.951057 -0.309017 0
    outer loop
      vertex 44.2277 -8.3381 30
      vertex 44.2277 -8.3381 0
      vertex 45.552 -4.26219 0
    endloop
  endfacet
  facet normal 0.951057 -0.309017 0
    outer loop
      vertex 45.552 -4.26219 30
      vertex 44.2277 -8.3381 30
      vertex 45.552 -4.26219 0
    endloop
  endfacet
  facet normal 0.994522 -0.104528 0
    outer loop
      vertex 45.552 -4.26219 30
      vertex 45.552 -4.26219 0
      vertex 46 0 0
    endloop
  endfacet
  facet normal 0.994522 -0.104528 0
    outer loop
      vertex 46 0 30
      vertex 45.552 -4.26219 30
      vertex 46 0 0
    endloop
  endfacet
  facet normal 0.994522 0.104528 0
    outer loop
      vertex 46 0 0
      vertex 45.552 4.26219 0
      vertex 45.552 4.26219 30
    endloop
  endfacet
  facet normal 0.994522 0.104528 0
    outer loop
      vertex 46 0 30
      vertex 46 0 0
      vertex 45.552 4.26219 30
    endloop
  endfacet
  facet normal 0.951057 0.309017 0
    outer loop
      vertex 45.552 4.26219 0
      vertex 44.2277 8.3381 0
      vertex 44.2277 8.3381 30
    endloop
  endfacet
  facet normal 0.951057 0.309017 0
    outer loop
      vertex 45.552 4.26219 30
      vertex 45.552 4.26219 0
      vertex 44.2277 8.3381 30
    endloop
  endfacet
  facet normal 0.866025 0.5 0
    outer loop
      vertex 44.2277 8.3381 0
      vertex 42.0848 12.0496 0
      vertex 42.0848 12.0496 30
    endloop
  endfacet
  facet normal 0.866025 0.5 0
    outer loop
      vertex 44.2277 8.3381 30
      vertex 44.2277 8.3381 0
      vertex 42.0848 12.0496 30
    endloop
  endfacet
  facet normal 0.743145 0.669131 0
    outer loop
      vertex 42.0848 12.0496 0
      vertex 39.2172 15.2345 0
      vertex 39.2172 15.2345 30
    endloop
  endfacet
  facet normal 0.743145 0.669131 0
    outer loop
      vertex 42.0848 12.0496 30
      vertex 42.0848 12.0496 0
      vertex 39.2172 15.2345 30
    endloop
  endfacet
  facet normal 0.587785 0.809017 0
    outer loop
      vertex 35.75 17.7535 0
      vertex 35.75 17.7535 30
      vertex 39.2172 15.2345 0
    endloop
  endfacet
  facet normal 0.587785 0.809017 0
    outer loop
      vertex 39.2172 15.2345 0
      vertex 35.75 17.7535 30
      vertex 39.2172 15.2345 30
    endloop
  endfacet
  facet normal 0.406737 0.913545 0
    outer loop
      vertex 31.8348 19.4967 0
      vertex 31.8348 19.4967 30
      vertex 35.75 17.7535 0
    endloop
  endfacet
  facet normal 0.406737 0.913545 0
    outer loop
      vertex 35.75 17.7535 0
      vertex 31.8348 19.4967 30
      vertex 35.75 17.7535 30
    endloop
  endfacet
  facet normal 0.207912 0.978148 0
    outer loop
      vertex 27.6428 20.3877 0
      vertex 27.6428 20.3877 30
      vertex 31.8348 19.4967 0
    endloop
  endfacet
  facet normal 0.207912 0.978148 0
    outer loop
      vertex 31.8348 19.4967 0
      vertex 27.6428 20.3877 30
      vertex 31.8348 19.4967 30
    endloop
  endfacet
  facet normal 0 1 0
    outer loop
      vertex 23.3572 20.3877 0
      vertex 23.3572 20.3877 30
      vertex 27.6428 20.3877 0
    endloop
  endfacet
  facet normal 0 1 0
    outer loop
      vertex 27.6428 20.3877 0
      vertex 23.3572 20.3877 30
      vertex 27.6428 20.3877 30
    endloop
  endfacet
  facet normal -0.207912 0.978148 0
    outer loop
      vertex 19.1652 19.4967 0
      vertex 19.1652 19.4967 30
      vertex 23.3572 20.3877 0
    endloop
  endfacet
  facet normal -0.207912 0.978148 0
    outer loop
      vertex 23.3572 20.3877 0
      vertex 19.1652 19.4967 30
      vertex 23.3572 20.3877 30
    endloop
  endfacet
  facet normal -0.406737 0.913545 0
    outer loop
      vertex 15.25 17.7535 0
      vertex 15.25 17.7535 30
      vertex 19.1652 19.4967 0
    endloop
  endfacet
  facet normal -0.406737 0.913545 0
    outer loop
      vertex 19.1652 19.4967 0
      vertex 15.25 17.7535 30
      vertex 19.1652 19.4967 30
    endloop
  endfacet
  facet normal -0.554133 0.832428 0
    outer loop
      vertex -3.72264 5.12377 0
      vertex -3.72264 5.12377 10
      vertex 15.25 17.7535 0
    endloop
  endfacet
  facet normal -0.554133 0.832428 0
    outer loop
      vertex 15.25 17.7535 0
      vertex -3.72264 5.12377 10
      vertex 15.25 17.7535 30
    endloop
  endfacet
  facet normal -0.707107 0.707107 0
    outer loop
      vertex -5.12377 3.72264 0
      vertex -5.12377 3.72264 10
      vertex -3.72264 5.12377 0
    endloop
  endfacet
  facet normal -0.707107 0.707107 0
    outer loop
      vertex -3.72264 5.12377 0
      vertex -5.12377 3.72264 10
      vertex -3.72264 5.12377 10
    endloop
  endfacet
  facet normal -0.891006 0.453991 0
    outer loop
      vertex -6.02336 1.95711 0
      vertex -6.02336 1.95711 10
      vertex -5.12377 3.72264 0
    endloop
  endfacet
  facet normal -0.891006 0.453991 0
    outer loop
      vertex -5.12377 3.72264 0
      vertex -6.02336 1.95711 10
      vertex -5.12377 3.72264 10
    endloop
  endfacet
  facet normal 0.980785 0.19509 0
    outer loop
      vertex -5 0 12.3529
      vertex -4.89661 -0.519771 12.439
      vertex -4.6194 -1.91342 12.5407
    endloop
  endfacet
  facet normal 0.980785 0.19509 0
    outer loop
      vertex -5 0 0
      vertex -5 0 12.3529
      vertex -4.6194 -1.91342 0
    endloop
  endfacet
  facet normal 0.980785 0.19509 0
    outer loop
      vertex -4.6194 -1.91342 0
      vertex -5 0 12.3529
      vertex -4.6194 -1.91342 12.5407
    endloop
  endfacet
  facet normal 0.980785 -0.19509 0
    outer loop
      vertex -4.6194 1.91342 0
      vertex -4.6194 1.91342 12.5407
      vertex -4.89661 0.519771 12.439
    endloop
  endfacet
  facet normal 0.980785 -0.19509 0
    outer loop
      vertex -5 0 0
      vertex -4.6194 1.91342 0
      vertex -5 0 12.3529
    endloop
  endfacet
  facet normal 0.980785 -0.19509 0
    outer loop
      vertex -5 0 12.3529
      vertex -4.6194 1.91342 0
      vertex -4.89661 0.519771 12.439
    endloop
  endfacet
  facet normal 0.83147 -0.55557 0
    outer loop
      vertex -3.53553 3.53553 0
      vertex -3.53553 3.53553 13.5279
      vertex -3.87403 3.02894 13.3595
    endloop
  endfacet
  facet normal 0.83147 -0.55557 0
    outer loop
      vertex -4.6194 1.91342 12.5407
      vertex -3.53553 3.53553 0
      vertex -4.36794 2.28975 12.8862
    endloop
  endfacet
  facet normal 0.83147 -0.55557 0
    outer loop
      vertex -4.36794 2.28975 12.8862
      vertex -3.53553 3.53553 0
      vertex -3.87403 3.02894 13.3595
    endloop
  endfacet
  facet normal 0.83147 -0.55557 0
    outer loop
      vertex -4.6194 1.91342 0
      vertex -3.53553 3.53553 0
      vertex -4.6194 1.91342 12.5407
    endloop
  endfacet
  facet normal 0.55557 -0.83147 0
    outer loop
      vertex -1.91342 4.6194 0
      vertex -1.91342 4.6194 15.7697
      vertex -3.53553 3.53553 13.5279
    endloop
  endfacet
  facet normal 0.55557 -0.83147 0
    outer loop
      vertex -3.53553 3.53553 0
      vertex -1.91342 4.6194 0
      vertex -3.53553 3.53553 13.5279
    endloop
  endfacet
  facet normal 0.19509 -0.980785 0
    outer loop
      vertex 0 5 0
      vertex 0 5 19.3729
      vertex -1.91342 4.6194 15.7697
    endloop
  endfacet
  facet normal 0.19509 -0.980785 0
    outer loop
      vertex -1.91342 4.6194 0
      vertex 0 5 0
      vertex -1.91342 4.6194 15.7697
    endloop
  endfacet
  facet normal -0.19509 -0.980785 0
    outer loop
      vertex 1.91342 4.6194 0
      vertex 1.91342 4.6194 23.1906
      vertex 0.0561106 4.98884 19.5024
    endloop
  endfacet
  facet normal -0.19509 -0.980785 0
    outer loop
      vertex 0 5 0
      vertex 1.91342 4.6194 0
      vertex 0 5 19.3729
    endloop
  endfacet
  facet normal -0.19509 -0.980785 0
    outer loop
      vertex 0 5 19.3729
      vertex 1.91342 4.6194 0
      vertex 0.0561106 4.98884 19.5024
    endloop
  endfacet
  facet normal -0.55557 -0.83147 0
    outer loop
      vertex 3.53553 3.53553 0
      vertex 3.53553 3.53553 26.7599
      vertex 3.50176 3.5581 26.6961
    endloop
  endfacet
  facet normal -0.55557 -0.83147 0
    outer loop
      vertex 1.91342 4.6194 23.1906
      vertex 3.53553 3.53553 0
      vertex 3.14161 3.79874 25.9789
    endloop
  endfacet
  facet normal -0.55557 -0.83147 0
    outer loop
      vertex 3.14161 3.79874 25.9789
      vertex 3.53553 3.53553 0
      vertex 3.50176 3.5581 26.6961
    endloop
  endfacet
  facet normal -0.55557 -0.83147 0
    outer loop
      vertex 1.91342 4.6194 0
      vertex 3.53553 3.53553 0
      vertex 1.91342 4.6194 23.1906
    endloop
  endfacet
  facet normal -0.83147 -0.55557 0
    outer loop
      vertex 4.6194 1.91342 28.9735
      vertex 3.53553 3.53553 26.7599
      vertex 4.6194 1.91342 0
    endloop
  endfacet
  facet normal -0.83147 -0.55557 0
    outer loop
      vertex 4.6194 1.91342 0
      vertex 3.53553 3.53553 26.7599
      vertex 3.53553 3.53553 0
    endloop
  endfacet
  facet normal -0.980785 -0.19509 0
    outer loop
      vertex 5 0 30
      vertex 4.6194 1.91342 28.9735
      vertex 5 0 0
    endloop
  endfacet
  facet normal -0.980785 -0.19509 0
    outer loop
      vertex 5 0 0
      vertex 4.6194 1.91342 28.9735
      vertex 4.6194 1.91342 0
    endloop
  endfacet
  facet normal -0.980785 0.19509 0
    outer loop
      vertex 5 0 30
      vertex 5 0 0
      vertex 4.6194 -1.91342 28.9735
    endloop
  endfacet
  facet normal -0.980785 0.19509 0
    outer loop
      vertex 4.6194 -1.91342 28.9735
      vertex 5 0 0
      vertex 4.6194 -1.91342 0
    endloop
  endfacet
  facet normal -0.83147 0.55557 0
    outer loop
      vertex 4.6194 -1.91342 28.9735
      vertex 4.6194 -1.91342 0
      vertex 3.53553 -3.53553 26.7599
    endloop
  endfacet
  facet normal -0.83147 0.55557 0
    outer loop
      vertex 3.53553 -3.53553 26.7599
      vertex 4.6194 -1.91342 0
      vertex 3.53553 -3.53553 0
    endloop
  endfacet
  facet normal -0.55557 0.83147 0
    outer loop
      vertex 3.14161 -3.79874 25.9789
      vertex 3.50176 -3.5581 26.6961
      vertex 1.91342 -4.6194 23.1906
    endloop
  endfacet
  facet normal -0.55557 0.83147 0
    outer loop
      vertex 1.91342 -4.6194 23.1906
      vertex 3.50176 -3.5581 26.6961
      vertex 3.53553 -3.53553 26.7599
    endloop
  endfacet
  facet normal -0.55557 0.83147 0
    outer loop
      vertex 1.91342 -4.6194 23.1906
      vertex 3.53553 -3.53553 26.7599
      vertex 3.53553 -3.53553 0
    endloop
  endfacet
  facet normal -0.55557 0.83147 0
    outer loop
      vertex 1.91342 -4.6194 23.1906
      vertex 3.53553 -3.53553 0
      vertex 1.91342 -4.6194 0
    endloop
  endfacet
  facet normal -0.19509 0.980785 0
    outer loop
      vertex 0.0561106 -4.98884 19.5024
      vertex 1.91342 -4.6194 23.1906
      vertex 0 -5 19.3729
    endloop
  endfacet
  facet normal -0.19509 0.980785 0
    outer loop
      vertex 0 -5 19.3729
      vertex 1.91342 -4.6194 23.1906
      vertex 1.91342 -4.6194 0
    endloop
  endfacet
  facet normal -0.19509 0.980785 0
    outer loop
      vertex 0 -5 19.3729
      vertex 1.91342 -4.6194 0
      vertex 0 -5 0
    endloop
  endfacet
  facet normal 0.19509 0.980785 0
    outer loop
      vertex 0 -5 19.3729
      vertex 0 -5 0
      vertex -1.91342 -4.6194 15.7697
    endloop
  endfacet
  facet normal 0.19509 0.980785 0
    outer loop
      vertex -1.91342 -4.6194 15.7697
      vertex 0 -5 0
      vertex -1.91342 -4.6194 0
    endloop
  endfacet
  facet normal 0.55557 0.83147 0
    outer loop
      vertex -1.91342 -4.6194 15.7697
      vertex -1.91342 -4.6194 0
      vertex -3.53553 -3.53553 13.5279
    endloop
  endfacet
  facet normal 0.55557 0.83147 0
    outer loop
      vertex -3.53553 -3.53553 13.5279
      vertex -1.91342 -4.6194 0
      vertex -3.53553 -3.53553 0
    endloop
  endfacet
  facet normal 0.83147 0.55557 0
    outer loop
      vertex -4.6194 -1.91342 12.5407
      vertex -4.36794 -2.28975 12.8862
      vertex -3.87403 -3.02894 13.3595
    endloop
  endfacet
  facet normal 0.83147 0.55557 0
    outer loop
      vertex -3.53553 -3.53553 0
      vertex -4.6194 -1.91342 12.5407
      vertex -3.53553 -3.53553 13.5279
    endloop
  endfacet
  facet normal 0.83147 0.55557 0
    outer loop
      vertex -3.53553 -3.53553 13.5279
      vertex -4.6194 -1.91342 12.5407
      vertex -3.87403 -3.02894 13.3595
    endloop
  endfacet
  facet normal 0.83147 0.55557 0
    outer loop
      vertex -4.6194 -1.91342 0
      vertex -4.6194 -1.91342 12.5407
      vertex -3.53553 -3.53553 0
    endloop
  endfacet
  facet normal 0.994522 -0.104528 0
    outer loop
      vertex 8.38242 3.63845 0
      vertex 8.38242 3.63845 30
      vertex 8 0 30
    endloop
  endfacet
  facet normal 0.994522 -0.104528 0
    outer loop
      vertex 8 0 0
      vertex 8.38242 3.63845 0
      vertex 8 0 30
    endloop
  endfacet
  facet normal 0.994522 0.104528 0
    outer loop
      vertex 8 0 30
      vertex 8.38242 -3.63845 30
      vertex 8.38242 -3.63845 0
    endloop
  endfacet
  facet normal 0.994522 0.104528 0
    outer loop
      vertex 8 0 0
      vertex 8 0 30
      vertex 8.38242 -3.63845 0
    endloop
  endfacet
  facet normal 0.951057 -0.309017 0
    outer loop
      vertex 9.51295 7.11789 0
      vertex 9.51295 7.11789 30
      vertex 8.38242 3.63845 30
    endloop
  endfacet
  facet normal 0.951057 -0.309017 0
    outer loop
      vertex 8.38242 3.63845 0
      vertex 9.51295 7.11789 0
      vertex 8.38242 3.63845 30
    endloop
  endfacet
  facet normal 0.866025 -0.5 0
    outer loop
      vertex 11.3422 10.2862 0
      vertex 11.3422 10.2862 30
      vertex 9.51295 7.11789 30
    endloop
  endfacet
  facet normal 0.866025 -0.5 0
    outer loop
      vertex 9.51295 7.11789 0
      vertex 11.3422 10.2862 0
      vertex 9.51295 7.11789 30
    endloop
  endfacet
  facet normal 0.743145 -0.669131 0
    outer loop
      vertex 13.7902 13.005 0
      vertex 13.7902 13.005 30
      vertex 11.3422 10.2862 30
    endloop
  endfacet
  facet normal 0.743145 -0.669131 0
    outer loop
      vertex 11.3422 10.2862 0
      vertex 13.7902 13.005 0
      vertex 11.3422 10.2862 30
    endloop
  endfacet
  facet normal 0.587785 -0.809017 0
    outer loop
      vertex 16.75 15.1554 0
      vertex 16.75 15.1554 30
      vertex 13.7902 13.005 30
    endloop
  endfacet
  facet normal 0.587785 -0.809017 0
    outer loop
      vertex 13.7902 13.005 0
      vertex 16.75 15.1554 0
      vertex 13.7902 13.005 30
    endloop
  endfacet
  facet normal 0.406736 -0.913546 0
    outer loop
      vertex 20.0922 16.6435 0
      vertex 20.0922 16.6435 30
      vertex 16.75 15.1554 30
    endloop
  endfacet
  facet normal 0.406736 -0.913546 0
    outer loop
      vertex 16.75 15.1554 0
      vertex 20.0922 16.6435 0
      vertex 16.75 15.1554 30
    endloop
  endfacet
  facet normal 0.207912 -0.978148 0
    outer loop
      vertex 23.6708 17.4041 0
      vertex 23.6708 17.4041 30
      vertex 20.0922 16.6435 30
    endloop
  endfacet
  facet normal 0.207912 -0.978148 0
    outer loop
      vertex 20.0922 16.6435 0
      vertex 23.6708 17.4041 0
      vertex 20.0922 16.6435 30
    endloop
  endfacet
  facet normal 0 -1 0
    outer loop
      vertex 27.3292 17.4041 0
      vertex 27.3292 17.4041 30
      vertex 23.6708 17.4041 30
    endloop
  endfacet
  facet normal 0 -1 0
    outer loop
      vertex 23.6708 17.4041 0
      vertex 27.3292 17.4041 0
      vertex 23.6708 17.4041 30
    endloop
  endfacet
  facet normal -0.207912 -0.978148 0
    outer loop
      vertex 30.9078 16.6435 0
      vertex 30.9078 16.6435 30
      vertex 27.3292 17.4041 30
    endloop
  endfacet
  facet normal -0.207912 -0.978148 0
    outer loop
      vertex 27.3292 17.4041 0
      vertex 30.9078 16.6435 0
      vertex 27.3292 17.4041 30
    endloop
  endfacet
  facet normal -0.406736 -0.913546 0
    outer loop
      vertex 34.25 15.1554 0
      vertex 34.25 15.1554 30
      vertex 30.9078 16.6435 30
    endloop
  endfacet
  facet normal -0.406736 -0.913546 0
    outer loop
      vertex 30.9078 16.6435 0
      vertex 34.25 15.1554 0
      vertex 30.9078 16.6435 30
    endloop
  endfacet
  facet normal -0.587785 -0.809017 0
    outer loop
      vertex 37.2098 13.005 0
      vertex 37.2098 13.005 30
      vertex 34.25 15.1554 30
    endloop
  endfacet
  facet normal -0.587785 -0.809017 0
    outer loop
      vertex 34.25 15.1554 0
      vertex 37.2098 13.005 0
      vertex 34.25 15.1554 30
    endloop
  endfacet
  facet normal -0.743145 -0.669131 0
    outer loop
      vertex 39.6578 10.2862 30
      vertex 37.2098 13.005 30
      vertex 39.6578 10.2862 0
    endloop
  endfacet
  facet normal -0.743145 -0.669131 0
    outer loop
      vertex 39.6578 10.2862 0
      vertex 37.2098 13.005 30
      vertex 37.2098 13.005 0
    endloop
  endfacet
  facet normal -0.866025 -0.5 0
    outer loop
      vertex 41.487 7.11789 30
      vertex 39.6578 10.2862 30
      vertex 41.487 7.11789 0
    endloop
  endfacet
  facet normal -0.866025 -0.5 0
    outer loop
      vertex 41.487 7.11789 0
      vertex 39.6578 10.2862 30
      vertex 39.6578 10.2862 0
    endloop
  endfacet
  facet normal -0.951057 -0.309017 0
    outer loop
      vertex 42.6176 3.63845 30
      vertex 41.487 7.11789 30
      vertex 42.6176 3.63845 0
    endloop
  endfacet
  facet normal -0.951057 -0.309017 0
    outer loop
      vertex 42.6176 3.63845 0
      vertex 41.487 7.11789 30
      vertex 41.487 7.11789 0
    endloop
  endfacet
  facet normal -0.994522 -0.104528 0
    outer loop
      vertex 43 0 30
      vertex 42.6176 3.63845 30
      vertex 43 0 0
    endloop
  endfacet
  facet normal -0.994522 -0.104528 0
    outer loop
      vertex 43 0 0
      vertex 42.6176 3.63845 30
      vertex 42.6176 3.63845 0
    endloop
  endfacet
  facet normal -0.994522 0.104528 0
    outer loop
      vertex 43 0 30
      vertex 43 0 0
      vertex 42.6176 -3.63845 30
    endloop
  endfacet
  facet normal -0.994522 0.104528 0
    outer loop
      vertex 42.6176 -3.63845 30
      vertex 43 0 0
      vertex 42.6176 -3.63845 0
    endloop
  endfacet
  facet normal -0.951057 0.309017 0
    outer loop
      vertex 42.6176 -3.63845 30
      vertex 42.6176 -3.63845 0
      vertex 41.487 -7.11789 30
    endloop
  endfacet
  facet normal -0.951057 0.309017 0
    outer loop
      vertex 41.487 -7.11789 30
      vertex 42.6176 -3.63845 0
      vertex 41.487 -7.11789 0
    endloop
  endfacet
  facet normal -0.866025 0.5 0
    outer loop
      vertex 41.487 -7.11789 30
      vertex 41.487 -7.11789 0
      vertex 39.6578 -10.2862 30
    endloop
  endfacet
  facet normal -0.866025 0.5 0
    outer loop
      vertex 39.6578 -10.2862 30
      vertex 41.487 -7.11789 0
      vertex 39.6578 -10.2862 0
    endloop
  endfacet
  facet normal -0.743145 0.669131 0
    outer loop
      vertex 39.6578 -10.2862 30
      vertex 39.6578 -10.2862 0
      vertex 37.2098 -13.005 30
    endloop
  endfacet
  facet normal -0.743145 0.669131 0
    outer loop
      vertex 37.2098 -13.005 30
      vertex 39.6578 -10.2862 0
      vertex 37.2098 -13.005 0
    endloop
  endfacet
  facet normal -0.587785 0.809017 0
    outer loop
      vertex 37.2098 -13.005 30
      vertex 37.2098 -13.005 0
      vertex 34.25 -15.1554 30
    endloop
  endfacet
  facet normal -0.587785 0.809017 0
    outer loop
      vertex 34.25 -15.1554 30
      vertex 37.2098 -13.005 0
      vertex 34.25 -15.1554 0
    endloop
  endfacet
  facet normal -0.406736 0.913546 0
    outer loop
      vertex 34.25 -15.1554 30
      vertex 34.25 -15.1554 0
      vertex 30.9078 -16.6435 30
    endloop
  endfacet
  facet normal -0.406736 0.913546 0
    outer loop
      vertex 30.9078 -16.6435 30
      vertex 34.25 -15.1554 0
      vertex 30.9078 -16.6435 0
    endloop
  endfacet
  facet normal -0.207912 0.978148 0
    outer loop
      vertex 30.9078 -16.6435 30
      vertex 30.9078 -16.6435 0
      vertex 27.3292 -17.4041 30
    endloop
  endfacet
  facet normal -0.207912 0.978148 0
    outer loop
      vertex 27.3292 -17.4041 30
      vertex 30.9078 -16.6435 0
      vertex 27.3292 -17.4041 0
    endloop
  endfacet
  facet normal 0 1 0
    outer loop
      vertex 27.3292 -17.4041 30
      vertex 27.3292 -17.4041 0
      vertex 23.6708 -17.4041 30
    endloop
  endfacet
  facet normal 0 1 0
    outer loop
      vertex 23.6708 -17.4041 30
      vertex 27.3292 -17.4041 0
      vertex 23.6708 -17.4041 0
    endloop
  endfacet
  facet normal 0.207912 0.978148 0
    outer loop
      vertex 23.6708 -17.4041 30
      vertex 23.6708 -17.4041 0
      vertex 20.0922 -16.6435 30
    endloop
  endfacet
  facet normal 0.207912 0.978148 0
    outer loop
      vertex 20.0922 -16.6435 30
      vertex 23.6708 -17.4041 0
      vertex 20.0922 -16.6435 0
    endloop
  endfacet
  facet normal 0.406736 0.913546 0
    outer loop
      vertex 20.0922 -16.6435 30
      vertex 20.0922 -16.6435 0
      vertex 16.75 -15.1554 30
    endloop
  endfacet
  facet normal 0.406736 0.913546 0
    outer loop
      vertex 16.75 -15.1554 30
      vertex 20.0922 -16.6435 0
      vertex 16.75 -15.1554 0
    endloop
  endfacet
  facet normal 0.587785 0.809017 0
    outer loop
      vertex 16.75 -15.1554 30
      vertex 16.75 -15.1554 0
      vertex 13.7902 -13.005 30
    endloop
  endfacet
  facet normal 0.587785 0.809017 0
    outer loop
      vertex 13.7902 -13.005 30
      vertex 16.75 -15.1554 0
      vertex 13.7902 -13.005 0
    endloop
  endfacet
  facet normal 0.743145 0.669131 0
    outer loop
      vertex 11.3422 -10.2862 30
      vertex 13.7902 -13.005 30
      vertex 13.7902 -13.005 0
    endloop
  endfacet
  facet normal 0.743145 0.669131 0
    outer loop
      vertex 11.3422 -10.2862 0
      vertex 11.3422 -10.2862 30
      vertex 13.7902 -13.005 0
    endloop
  endfacet
  facet normal 0.866025 0.5 0
    outer loop
      vertex 9.51295 -7.11789 30
      vertex 11.3422 -10.2862 30
      vertex 11.3422 -10.2862 0
    endloop
  endfacet
  facet normal 0.866025 0.5 0
    outer loop
      vertex 9.51295 -7.11789 0
      vertex 9.51295 -7.11789 30
      vertex 11.3422 -10.2862 0
    endloop
  endfacet
  facet normal 0.951057 0.309017 0
    outer loop
      vertex 8.38242 -3.63845 30
      vertex 9.51295 -7.11789 30
      vertex 9.51295 -7.11789 0
    endloop
  endfacet
  facet normal 0.951057 0.309017 0
    outer loop
      vertex 8.38242 -3.63845 0
      vertex 8.38242 -3.63845 30
      vertex 9.51295 -7.11789 0
    endloop
  endfacet
  facet normal -0.847276 0.275297 0.45424
    outer loop
      vertex -3.87403 3.02894 13.3595
      vertex -6.02336 1.95711 10
      vertex -4.36794 2.28975 12.8862
    endloop
  endfacet
  facet normal -0.81996 0.417791 0.391301
    outer loop
      vertex -6.02336 1.95711 10
      vertex -3.87403 3.02894 13.3595
      vertex -5.12377 3.72264 10
    endloop
  endfacet
  facet normal -0.81996 0.417791 0.391301
    outer loop
      vertex -5.12377 3.72264 10
      vertex -3.87403 3.02894 13.3595
      vertex -3.53553 3.53553 13.5279
    endloop
  endfacet
  facet normal -0.81996 0.417791 0.391301
    outer loop
      vertex -5.12377 3.72264 10
      vertex -3.53553 3.53553 13.5279
      vertex -1.91342 4.6194 15.7697
    endloop
  endfacet
  facet normal -0.81996 0.417791 0.391301
    outer loop
      vertex -1.91342 4.6194 15.7697
      vertex 6.77232 8.3381 30
      vertex -5.12377 3.72264 10
    endloop
  endfacet
  facet normal -0.81996 0.417791 0.391301
    outer loop
      vertex 0 5 19.3729
      vertex 0.0561106 4.98884 19.5024
      vertex 6.77232 8.3381 30
    endloop
  endfacet
  facet normal -0.81996 0.417791 0.391301
    outer loop
      vertex 0 5 19.3729
      vertex 6.77232 8.3381 30
      vertex -1.91342 4.6194 15.7697
    endloop
  endfacet
  facet normal -0.847276 -0.275297 0.45424
    outer loop
      vertex 0.0561106 -4.98884 19.5024
      vertex 6.77232 -8.3381 30
      vertex 1.91342 -4.6194 23.1906
    endloop
  endfacet
  facet normal -0.847276 -0.275297 0.45424
    outer loop
      vertex 1.91342 -4.6194 23.1906
      vertex 6.77232 -8.3381 30
      vertex 5.44797 -4.26219 30
    endloop
  endfacet
  facet normal -0.847276 -0.275297 0.45424
    outer loop
      vertex 1.91342 -4.6194 23.1906
      vertex 5.44797 -4.26219 30
      vertex 3.14161 -3.79874 25.9789
    endloop
  endfacet
  facet normal 0 0 1
    outer loop
      vertex 5.44797 4.26219 30
      vertex 5 0 30
      vertex 5.44797 -4.26219 30
    endloop
  endfacet
  facet normal 0 0 1
    outer loop
      vertex 8.91515 -12.0496 30
      vertex 5.44797 4.26219 30
      vertex 6.77232 -8.3381 30
    endloop
  endfacet
  facet normal 0 0 1
    outer loop
      vertex 6.77232 -8.3381 30
      vertex 5.44797 4.26219 30
      vertex 5.44797 -4.26219 30
    endloop
  endfacet
  facet normal 0 0 1
    outer loop
      vertex 11.7828 -15.2345 30
      vertex 5.44797 4.26219 30
      vertex 8.91515 -12.0496 30
    endloop
  endfacet
  facet normal 0 0 1
    outer loop
      vertex 8.38242 -3.63845 30
      vertex 5.44797 4.26219 30
      vertex 11.7828 -15.2345 30
    endloop
  endfacet
  facet normal 0 0 1
    outer loop
      vertex 39.6578 -10.2862 30
      vertex 37.2098 -13.005 30
      vertex 42.0848 -12.0496 30
    endloop
  endfacet
  facet normal 0 0 1
    outer loop
      vertex 8.38242 3.63845 30
      vertex 9.51295 7.11789 30
      vertex 5.44797 4.26219 30
    endloop
  endfacet
  facet normal 0 0 1
    outer loop
      vertex 23.6708 -17.4041 30
      vertex 20.0922 -16.6435 30
      vertex 23.3572 -20.3877 30
    endloop
  endfacet
  facet normal 0 0 1
    outer loop
      vertex 41.487 7.11789 30
      vertex 42.6176 3.63845 30
      vertex 45.552 4.26219 30
    endloop
  endfacet
  facet normal 0 0 1
    outer loop
      vertex 39.6578 10.2862 30
      vertex 41.487 7.11789 30
      vertex 44.2277 8.3381 30
    endloop
  endfacet
  facet normal 0 0 1
    outer loop
      vertex 37.2098 13.005 30
      vertex 39.6578 10.2862 30
      vertex 42.0848 12.0496 30
    endloop
  endfacet
  facet normal 0 0 1
    outer loop
      vertex 27.3292 17.4041 30
      vertex 30.9078 16.6435 30
      vertex 31.8348 19.4967 30
    endloop
  endfacet
  facet normal 0 0 1
    outer loop
      vertex 20.0922 16.6435 30
      vertex 23.6708 17.4041 30
      vertex 27.6428 20.3877 30
    endloop
  endfacet
  facet normal 0 0 1
    outer loop
      vertex 15.25 17.7535 30
      vertex 5.44797 4.26219 30
      vertex 19.1652 19.4967 30
    endloop
  endfacet
  facet normal 0 0 1
    outer loop
      vertex 11.7828 15.2345 30
      vertex 5.44797 4.26219 30
      vertex 15.25 17.7535 30
    endloop
  endfacet
  facet normal 0 0 1
    outer loop
      vertex 8.91515 12.0496 30
      vertex 5.44797 4.26219 30
      vertex 11.7828 15.2345 30
    endloop
  endfacet
  facet normal 0 0 1
    outer loop
      vertex 6.77232 8.3381 30
      vertex 5.44797 4.26219 30
      vertex 8.91515 12.0496 30
    endloop
  endfacet
  facet normal 0 0 1
    outer loop
      vertex 9.51295 -7.11789 30
      vertex 8.38242 -3.63845 30
      vertex 11.7828 -15.2345 30
    endloop
  endfacet
  facet normal 0 0 1
    outer loop
      vertex 41.487 -7.11789 30
      vertex 39.6578 -10.2862 30
      vertex 44.2277 -8.3381 30
    endloop
  endfacet
  facet normal 0 0 1
    outer loop
      vertex 30.9078 16.6435 30
      vertex 34.25 15.1554 30
      vertex 35.75 17.7535 30
    endloop
  endfacet
  facet normal 0 0 1
    outer loop
      vertex 19.1652 19.4967 30
      vertex 5.44797 4.26219 30
      vertex 11.3422 10.2862 30
    endloop
  endfacet
  facet normal 0 0 1
    outer loop
      vertex 19.1652 19.4967 30
      vertex 13.7902 13.005 30
      vertex 23.3572 20.3877 30
    endloop
  endfacet
  facet normal 0 0 1
    outer loop
      vertex 19.1652 19.4967 30
      vertex 11.3422 10.2862 30
      vertex 13.7902 13.005 30
    endloop
  endfacet
  facet normal 0 0 1
    outer loop
      vertex 13.7902 13.005 30
      vertex 16.75 15.1554 30
      vertex 23.3572 20.3877 30
    endloop
  endfacet
  facet normal 0 0 1
    outer loop
      vertex 23.3572 20.3877 30
      vertex 20.0922 16.6435 30
      vertex 27.6428 20.3877 30
    endloop
  endfacet
  facet normal 0 0 1
    outer loop
      vertex 16.75 15.1554 30
      vertex 20.0922 16.6435 30
      vertex 23.3572 20.3877 30
    endloop
  endfacet
  facet normal 0 0 1
    outer loop
      vertex 27.6428 20.3877 30
      vertex 23.6708 17.4041 30
      vertex 31.8348 19.4967 30
    endloop
  endfacet
  facet normal 0 0 1
    outer loop
      vertex 23.6708 17.4041 30
      vertex 27.3292 17.4041 30
      vertex 31.8348 19.4967 30
    endloop
  endfacet
  facet normal 0 0 1
    outer loop
      vertex 31.8348 19.4967 30
      vertex 30.9078 16.6435 30
      vertex 35.75 17.7535 30
    endloop
  endfacet
  facet normal 0 0 1
    outer loop
      vertex 42.6176 3.63845 30
      vertex 43 0 30
      vertex 46 0 30
    endloop
  endfacet
  facet normal 0 0 1
    outer loop
      vertex 35.75 17.7535 30
      vertex 34.25 15.1554 30
      vertex 39.2172 15.2345 30
    endloop
  endfacet
  facet normal 0 0 1
    outer loop
      vertex 9.51295 7.11789 30
      vertex 11.3422 10.2862 30
      vertex 5.44797 4.26219 30
    endloop
  endfacet
  facet normal 0 0 1
    outer loop
      vertex 39.2172 15.2345 30
      vertex 37.2098 13.005 30
      vertex 42.0848 12.0496 30
    endloop
  endfacet
  facet normal 0 0 1
    outer loop
      vertex 42.0848 12.0496 30
      vertex 39.6578 10.2862 30
      vertex 44.2277 8.3381 30
    endloop
  endfacet
  facet normal 0 0 1
    outer loop
      vertex 44.2277 8.3381 30
      vertex 41.487 7.11789 30
      vertex 45.552 4.26219 30
    endloop
  endfacet
  facet normal 0 0 1
    outer loop
      vertex 45.552 4.26219 30
      vertex 42.6176 3.63845 30
      vertex 46 0 30
    endloop
  endfacet
  facet normal 0 0 1
    outer loop
      vertex 46 0 30
      vertex 43 0 30
      vertex 45.552 -4.26219 30
    endloop
  endfacet
  facet normal 0 0 1
    outer loop
      vertex 45.552 -4.26219 30
      vertex 42.6176 -3.63845 30
      vertex 44.2277 -8.3381 30
    endloop
  endfacet
  facet normal 0 0 1
    outer loop
      vertex 34.25 15.1554 30
      vertex 37.2098 13.005 30
      vertex 39.2172 15.2345 30
    endloop
  endfacet
  facet normal 0 0 1
    outer loop
      vertex 42.6176 -3.63845 30
      vertex 41.487 -7.11789 30
      vertex 44.2277 -8.3381 30
    endloop
  endfacet
  facet normal 0 0 1
    outer loop
      vertex 44.2277 -8.3381 30
      vertex 39.6578 -10.2862 30
      vertex 42.0848 -12.0496 30
    endloop
  endfacet
  facet normal 0 0 1
    outer loop
      vertex 42.0848 -12.0496 30
      vertex 37.2098 -13.005 30
      vertex 39.2172 -15.2345 30
    endloop
  endfacet
  facet normal 0 0 1
    outer loop
      vertex 39.2172 -15.2345 30
      vertex 34.25 -15.1554 30
      vertex 35.75 -17.7535 30
    endloop
  endfacet
  facet normal 0 0 1
    outer loop
      vertex 35.75 -17.7535 30
      vertex 30.9078 -16.6435 30
      vertex 31.8348 -19.4967 30
    endloop
  endfacet
  facet normal 0 0 1
    outer loop
      vertex 31.8348 -19.4967 30
      vertex 27.3292 -17.4041 30
      vertex 27.6428 -20.3877 30
    endloop
  endfacet
  facet normal 0 0 1
    outer loop
      vertex 43 0 30
      vertex 42.6176 -3.63845 30
      vertex 45.552 -4.26219 30
    endloop
  endfacet
  facet normal 0 0 1
    outer loop
      vertex 27.6428 -20.3877 30
      vertex 23.6708 -17.4041 30
      vertex 23.3572 -20.3877 30
    endloop
  endfacet
  facet normal 0 0 1
    outer loop
      vertex 23.3572 -20.3877 30
      vertex 20.0922 -16.6435 30
      vertex 19.1652 -19.4967 30
    endloop
  endfacet
  facet normal 0 0 1
    outer loop
      vertex 20.0922 -16.6435 30
      vertex 16.75 -15.1554 30
      vertex 19.1652 -19.4967 30
    endloop
  endfacet
  facet normal 0 0 1
    outer loop
      vertex 19.1652 -19.4967 30
      vertex 13.7902 -13.005 30
      vertex 15.25 -17.7535 30
    endloop
  endfacet
  facet normal 0 0 1
    outer loop
      vertex 15.25 -17.7535 30
      vertex 11.3422 -10.2862 30
      vertex 11.7828 -15.2345 30
    endloop
  endfacet
  facet normal 0 0 1
    outer loop
      vertex 11.3422 -10.2862 30
      vertex 9.51295 -7.11789 30
      vertex 11.7828 -15.2345 30
    endloop
  endfacet
  facet normal 0 0 1
    outer loop
      vertex 8.38242 -3.63845 30
      vertex 8 0 30
      vertex 5.44797 4.26219 30
    endloop
  endfacet
  facet normal 0 0 1
    outer loop
      vertex 37.2098 -13.005 30
      vertex 34.25 -15.1554 30
      vertex 39.2172 -15.2345 30
    endloop
  endfacet
  facet normal 0 0 1
    outer loop
      vertex 34.25 -15.1554 30
      vertex 30.9078 -16.6435 30
      vertex 35.75 -17.7535 30
    endloop
  endfacet
  facet normal 0 0 1
    outer loop
      vertex 30.9078 -16.6435 30
      vertex 27.3292 -17.4041 30
      vertex 31.8348 -19.4967 30
    endloop
  endfacet
  facet normal 0 0 1
    outer loop
      vertex 27.3292 -17.4041 30
      vertex 23.6708 -17.4041 30
      vertex 27.6428 -20.3877 30
    endloop
  endfacet
  facet normal 0 0 1
    outer loop
      vertex 13.7902 -13.005 30
      vertex 11.3422 -10.2862 30
      vertex 15.25 -17.7535 30
    endloop
  endfacet
  facet normal 0 0 1
    outer loop
      vertex 16.75 -15.1554 30
      vertex 13.7902 -13.005 30
      vertex 19.1652 -19.4967 30
    endloop
  endfacet
  facet normal 0 0 1
    outer loop
      vertex 8 0 30
      vertex 8.38242 3.63845 30
      vertex 5.44797 4.26219 30
    endloop
  endfacet
  facet normal -0.804159 -0.464282 0.371174
    outer loop
      vertex 6.77232 -8.3381 30
      vertex -5.12377 -3.72264 10
      vertex 8.91515 -12.0496 30
    endloop
  endfacet
  facet normal -0.722121 -0.6502 0.23618
    outer loop
      vertex 8.91515 -12.0496 30
      vertex -5.12377 -3.72264 10
      vertex 11.7828 -15.2345 30
    endloop
  endfacet
  facet normal -0.694585 -0.694585 0.187356
    outer loop
      vertex 11.7828 -15.2345 30
      vertex -5.12377 -3.72264 10
      vertex -3.72264 -5.12377 10
    endloop
  endfacet
  facet normal -0.587145 -0.808136 0.0466571
    outer loop
      vertex 11.7828 -15.2345 30
      vertex -3.72264 -5.12377 10
      vertex 15.25 -17.7535 30
    endloop
  endfacet
  facet normal -0.587145 0.808136 0.0466571
    outer loop
      vertex 15.25 17.7535 30
      vertex -3.72264 5.12377 10
      vertex 11.7828 15.2345 30
    endloop
  endfacet
  facet normal -0.694585 0.694585 0.187356
    outer loop
      vertex -3.72264 5.12377 10
      vertex -5.12377 3.72264 10
      vertex 11.7828 15.2345 30
    endloop
  endfacet
  facet normal -0.722121 0.6502 0.23618
    outer loop
      vertex 11.7828 15.2345 30
      vertex -5.12377 3.72264 10
      vertex 8.91515 12.0496 30
    endloop
  endfacet
  facet normal -0.804159 0.464282 0.371174
    outer loop
      vertex 8.91515 12.0496 30
      vertex -5.12377 3.72264 10
      vertex 6.77232 8.3381 30
    endloop
  endfacet
  facet normal -0.847276 0.275297 0.45424
    outer loop
      vertex 0.0561106 4.98884 19.5024
      vertex 1.91342 4.6194 23.1906
      vertex 6.77232 8.3381 30
    endloop
  endfacet
  facet normal -0.847276 0.275297 0.45424
    outer loop
      vertex 6.77232 8.3381 30
      vertex 1.91342 4.6194 23.1906
      vertex 3.14161 3.79874 25.9789
    endloop
  endfacet
  facet normal -0.847276 0.275297 0.45424
    outer loop
      vertex 6.77232 8.3381 30
      vertex 3.14161 3.79874 25.9789
      vertex 5.44797 4.26219 30
    endloop
  endfacet
  facet normal -0.865985 0.137158 0.480892
    outer loop
      vertex 5.44797 4.26219 30
      vertex 3.14161 3.79874 25.9789
      vertex 3.50176 3.5581 26.6961
    endloop
  endfacet
  facet normal -0.866407 0.091063 0.490964
    outer loop
      vertex 3.50176 3.5581 26.6961
      vertex 3.53553 3.53553 26.7599
      vertex 5.44797 4.26219 30
    endloop
  endfacet
  facet normal -0.866407 0.091063 0.490964
    outer loop
      vertex 5.44797 4.26219 30
      vertex 3.53553 3.53553 26.7599
      vertex 4.6194 1.91342 28.9735
    endloop
  endfacet
  facet normal -0.866407 0.091063 0.490964
    outer loop
      vertex 4.6194 1.91342 28.9735
      vertex 5 0 30
      vertex 5.44797 4.26219 30
    endloop
  endfacet
  facet normal -0.866407 -0.091063 0.490964
    outer loop
      vertex 3.50176 -3.5581 26.6961
      vertex 5.44797 -4.26219 30
      vertex 3.53553 -3.53553 26.7599
    endloop
  endfacet
  facet normal -0.866407 -0.091063 0.490964
    outer loop
      vertex 4.6194 -1.91342 28.9735
      vertex 5.44797 -4.26219 30
      vertex 5 0 30
    endloop
  endfacet
  facet normal -0.866407 -0.091063 0.490964
    outer loop
      vertex 3.53553 -3.53553 26.7599
      vertex 5.44797 -4.26219 30
      vertex 4.6194 -1.91342 28.9735
    endloop
  endfacet
  facet normal -0.865985 -0.137158 0.480892
    outer loop
      vertex 3.50176 -3.5581 26.6961
      vertex 3.14161 -3.79874 25.9789
      vertex 5.44797 -4.26219 30
    endloop
  endfacet
endsolid OpenSCAD_Model
