solid OpenSCAD_Model
  facet normal 0.992115 0.125333 0
    outer loop
      vertex 7.8 0 22
      vertex 7.55495 1.93978 0
      vertex 7.55495 1.93978 22
    endloop
  endfacet
  facet normal 0.992115 0.125333 0
    outer loop
      vertex 7.55495 1.93978 0
      vertex 7.8 0 22
      vertex 7.8 0 0
    endloop
  endfacet
  facet normal 0.929776 0.368125 0
    outer loop
      vertex 7.55495 1.93978 22
      vertex 6.83519 3.75768 0
      vertex 6.83519 3.75768 22
    endloop
  endfacet
  facet normal 0.929776 0.368125 0
    outer loop
      vertex 6.83519 3.75768 0
      vertex 7.55495 1.93978 22
      vertex 7.55495 1.93978 0
    endloop
  endfacet
  facet normal 0.809017 0.587785 0
    outer loop
      vertex 6.83519 3.75768 22
      vertex 5.68596 5.33947 0
      vertex 5.68596 5.33947 22
    endloop
  endfacet
  facet normal 0.809017 0.587785 0
    outer loop
      vertex 5.68596 5.33947 0
      vertex 6.83519 3.75768 22
      vertex 6.83519 3.75768 0
    endloop
  endfacet
  facet normal 0.637424 0.770513 -0
    outer loop
      vertex 5.68596 5.33947 0
      vertex 4.17945 6.58576 22
      vertex 5.68596 5.33947 22
    endloop
  endfacet
  facet normal 0.637424 0.770513 0
    outer loop
      vertex 4.17945 6.58576 22
      vertex 5.68596 5.33947 0
      vertex 4.17945 6.58576 0
    endloop
  endfacet
  facet normal 0.425779 0.904827 -0
    outer loop
      vertex 4.17945 6.58576 0
      vertex 2.41033 7.41824 22
      vertex 4.17945 6.58576 22
    endloop
  endfacet
  facet normal 0.425779 0.904827 0
    outer loop
      vertex 2.41033 7.41824 22
      vertex 4.17945 6.58576 0
      vertex 2.41033 7.41824 0
    endloop
  endfacet
  facet normal 0.187381 0.982287 -0
    outer loop
      vertex 2.41033 7.41824 0
      vertex 0.489766 7.78461 22
      vertex 2.41033 7.41824 22
    endloop
  endfacet
  facet normal 0.187381 0.982287 0
    outer loop
      vertex 0.489766 7.78461 22
      vertex 2.41033 7.41824 0
      vertex 0.489766 7.78461 0
    endloop
  endfacet
  facet normal -0.0627905 0.998027 0
    outer loop
      vertex 0.489766 7.78461 0
      vertex -1.46157 7.66184 22
      vertex 0.489766 7.78461 22
    endloop
  endfacet
  facet normal -0.0627905 0.998027 0
    outer loop
      vertex -1.46157 7.66184 22
      vertex 0.489766 7.78461 0
      vertex -1.46157 7.66184 0
    endloop
  endfacet
  facet normal -0.309017 0.951057 0
    outer loop
      vertex -1.46157 7.66184 0
      vertex -3.32108 7.05765 22
      vertex -1.46157 7.66184 22
    endloop
  endfacet
  facet normal -0.309017 0.951057 0
    outer loop
      vertex -3.32108 7.05765 22
      vertex -1.46157 7.66184 0
      vertex -3.32108 7.05765 0
    endloop
  endfacet
  facet normal -0.535827 0.844328 0
    outer loop
      vertex -3.32108 7.05765 0
      vertex -4.97191 6.01 22
      vertex -3.32108 7.05765 22
    endloop
  endfacet
  facet normal -0.535827 0.844328 0
    outer loop
      vertex -4.97191 6.01 22
      vertex -3.32108 7.05765 0
      vertex -4.97191 6.01 0
    endloop
  endfacet
  facet normal -0.728969 0.684547 0
    outer loop
      vertex -6.31033 4.58472 0
      vertex -4.97191 6.01 22
      vertex -4.97191 6.01 0
    endloop
  endfacet
  facet normal -0.728969 0.684547 0
    outer loop
      vertex -4.97191 6.01 22
      vertex -6.31033 4.58472 0
      vertex -6.31033 4.58472 22
    endloop
  endfacet
  facet normal -0.876307 0.481754 0
    outer loop
      vertex -7.25226 2.87137 0
      vertex -6.31033 4.58472 22
      vertex -6.31033 4.58472 0
    endloop
  endfacet
  facet normal -0.876307 0.481754 0
    outer loop
      vertex -6.31033 4.58472 22
      vertex -7.25226 2.87137 0
      vertex -7.25226 2.87137 22
    endloop
  endfacet
  facet normal -0.968583 0.24869 0
    outer loop
      vertex -7.73849 0.977599 0
      vertex -7.25226 2.87137 22
      vertex -7.25226 2.87137 0
    endloop
  endfacet
  facet normal -0.968583 0.24869 0
    outer loop
      vertex -7.25226 2.87137 22
      vertex -7.73849 0.977599 0
      vertex -7.73849 0.977599 22
    endloop
  endfacet
  facet normal -1 0 0
    outer loop
      vertex -7.73849 -0.977599 0
      vertex -7.73849 0.977599 22
      vertex -7.73849 0.977599 0
    endloop
  endfacet
  facet normal -1 -0 0
    outer loop
      vertex -7.73849 0.977599 22
      vertex -7.73849 -0.977599 0
      vertex -7.73849 -0.977599 22
    endloop
  endfacet
  facet normal -0.968583 -0.24869 0
    outer loop
      vertex -7.25226 -2.87137 0
      vertex -7.73849 -0.977599 22
      vertex -7.73849 -0.977599 0
    endloop
  endfacet
  facet normal -0.968583 -0.24869 0
    outer loop
      vertex -7.73849 -0.977599 22
      vertex -7.25226 -2.87137 0
      vertex -7.25226 -2.87137 22
    endloop
  endfacet
  facet normal -0.876307 -0.481754 0
    outer loop
      vertex -6.31033 -4.58472 0
      vertex -7.25226 -2.87137 22
      vertex -7.25226 -2.87137 0
    endloop
  endfacet
  facet normal -0.876307 -0.481754 0
    outer loop
      vertex -7.25226 -2.87137 22
      vertex -6.31033 -4.58472 0
      vertex -6.31033 -4.58472 22
    endloop
  endfacet
  facet normal -0.728969 -0.684547 0
    outer loop
      vertex -4.97191 -6.01 0
      vertex -6.31033 -4.58472 22
      vertex -6.31033 -4.58472 0
    endloop
  endfacet
  facet normal -0.728969 -0.684547 0
    outer loop
      vertex -6.31033 -4.58472 22
      vertex -4.97191 -6.01 0
      vertex -4.97191 -6.01 22
    endloop
  endfacet
  facet normal -0.535827 -0.844328 0
    outer loop
      vertex -4.97191 -6.01 0
      vertex -3.32108 -7.05765 22
      vertex -4.97191 -6.01 22
    endloop
  endfacet
  facet normal -0.535827 -0.844328 -0
    outer loop
      vertex -3.32108 -7.05765 22
      vertex -4.97191 -6.01 0
      vertex -3.32108 -7.05765 0
    endloop
  endfacet
  facet normal -0.309017 -0.951057 0
    outer loop
      vertex -3.32108 -7.05765 0
      vertex -1.46157 -7.66184 22
      vertex -3.32108 -7.05765 22
    endloop
  endfacet
  facet normal -0.309017 -0.951057 -0
    outer loop
      vertex -1.46157 -7.66184 22
      vertex -3.32108 -7.05765 0
      vertex -1.46157 -7.66184 0
    endloop
  endfacet
  facet normal -0.0627905 -0.998027 0
    outer loop
      vertex -1.46157 -7.66184 0
      vertex 0.489766 -7.78461 22
      vertex -1.46157 -7.66184 22
    endloop
  endfacet
  facet normal -0.0627905 -0.998027 -0
    outer loop
      vertex 0.489766 -7.78461 22
      vertex -1.46157 -7.66184 0
      vertex 0.489766 -7.78461 0
    endloop
  endfacet
  facet normal 0.187381 -0.982287 0
    outer loop
      vertex 0.489766 -7.78461 0
      vertex 2.41033 -7.41824 22
      vertex 0.489766 -7.78461 22
    endloop
  endfacet
  facet normal 0.187381 -0.982287 0
    outer loop
      vertex 2.41033 -7.41824 22
      vertex 0.489766 -7.78461 0
      vertex 2.41033 -7.41824 0
    endloop
  endfacet
  facet normal 0.425779 -0.904827 0
    outer loop
      vertex 2.41033 -7.41824 0
      vertex 4.17945 -6.58576 22
      vertex 2.41033 -7.41824 22
    endloop
  endfacet
  facet normal 0.425779 -0.904827 0
    outer loop
      vertex 4.17945 -6.58576 22
      vertex 2.41033 -7.41824 0
      vertex 4.17945 -6.58576 0
    endloop
  endfacet
  facet normal 0.637424 -0.770513 0
    outer loop
      vertex 4.17945 -6.58576 0
      vertex 5.68596 -5.33947 22
      vertex 4.17945 -6.58576 22
    endloop
  endfacet
  facet normal 0.637424 -0.770513 0
    outer loop
      vertex 5.68596 -5.33947 22
      vertex 4.17945 -6.58576 0
      vertex 5.68596 -5.33947 0
    endloop
  endfacet
  facet normal 0.809017 -0.587785 0
    outer loop
      vertex 5.68596 -5.33947 22
      vertex 6.83519 -3.75768 0
      vertex 6.83519 -3.75768 22
    endloop
  endfacet
  facet normal 0.809017 -0.587785 0
    outer loop
      vertex 6.83519 -3.75768 0
      vertex 5.68596 -5.33947 22
      vertex 5.68596 -5.33947 0
    endloop
  endfacet
  facet normal 0.929776 -0.368125 0
    outer loop
      vertex 6.83519 -3.75768 22
      vertex 7.55495 -1.93978 0
      vertex 7.55495 -1.93978 22
    endloop
  endfacet
  facet normal 0.929776 -0.368125 0
    outer loop
      vertex 7.55495 -1.93978 0
      vertex 6.83519 -3.75768 22
      vertex 6.83519 -3.75768 0
    endloop
  endfacet
  facet normal 0.992115 -0.125333 0
    outer loop
      vertex 7.55495 -1.93978 22
      vertex 7.8 0 0
      vertex 7.8 0 22
    endloop
  endfacet
  facet normal 0.992115 -0.125333 0
    outer loop
      vertex 7.8 0 0
      vertex 7.55495 -1.93978 22
      vertex 7.55495 -1.93978 0
    endloop
  endfacet
  facet normal 0 0 -1
    outer loop
      vertex 7.55495 -1.93978 0
      vertex 7.55495 1.93978 0
      vertex 7.8 0 0
    endloop
  endfacet
  facet normal 0 0 -1
    outer loop
      vertex 6.83519 -3.75768 0
      vertex 7.55495 1.93978 0
      vertex 7.55495 -1.93978 0
    endloop
  endfacet
  facet normal 0 0 -1
    outer loop
      vertex 6.83519 -3.75768 0
      vertex 6.83519 3.75768 0
      vertex 7.55495 1.93978 0
    endloop
  endfacet
  facet normal 0 0 -1
    outer loop
      vertex 5.68596 -5.33947 0
      vertex 6.83519 3.75768 0
      vertex 6.83519 -3.75768 0
    endloop
  endfacet
  facet normal 0 0 -1
    outer loop
      vertex 5.68596 -5.33947 0
      vertex 5.68596 5.33947 0
      vertex 6.83519 3.75768 0
    endloop
  endfacet
  facet normal 0 0 -1
    outer loop
      vertex 4.17945 -6.58576 0
      vertex 5.68596 5.33947 0
      vertex 5.68596 -5.33947 0
    endloop
  endfacet
  facet normal 0 0 -1
    outer loop
      vertex 4.17945 -6.58576 0
      vertex 4.17945 6.58576 0
      vertex 5.68596 5.33947 0
    endloop
  endfacet
  facet normal 0 0 -1
    outer loop
      vertex 2.41033 -7.41824 0
      vertex 4.17945 6.58576 0
      vertex 4.17945 -6.58576 0
    endloop
  endfacet
  facet normal 0 0 -1
    outer loop
      vertex 2.41033 -7.41824 0
      vertex 2.41033 7.41824 0
      vertex 4.17945 6.58576 0
    endloop
  endfacet
  facet normal 0 0 -1
    outer loop
      vertex 0.489766 -7.78461 0
      vertex 2.41033 7.41824 0
      vertex 2.41033 -7.41824 0
    endloop
  endfacet
  facet normal 0 0 -1
    outer loop
      vertex 0.489766 -7.78461 0
      vertex 0.489766 7.78461 0
      vertex 2.41033 7.41824 0
    endloop
  endfacet
  facet normal 0 0 -1
    outer loop
      vertex -1.46157 -7.66184 0
      vertex 0.489766 7.78461 0
      vertex 0.489766 -7.78461 0
    endloop
  endfacet
  facet normal 0 0 -1
    outer loop
      vertex -1.46157 -7.66184 0
      vertex -1.46157 7.66184 0
      vertex 0.489766 7.78461 0
    endloop
  endfacet
  facet normal 0 0 -1
    outer loop
      vertex -3.32108 -7.05765 0
      vertex -1.46157 7.66184 0
      vertex -1.46157 -7.66184 0
    endloop
  endfacet
  facet normal 0 0 -1
    outer loop
      vertex -3.32108 -7.05765 0
      vertex -3.32108 7.05765 0
      vertex -1.46157 7.66184 0
    endloop
  endfacet
  facet normal 0 0 -1
    outer loop
      vertex -4.97191 -6.01 0
      vertex -3.32108 7.05765 0
      vertex -3.32108 -7.05765 0
    endloop
  endfacet
  facet normal 0 0 -1
    outer loop
      vertex -4.97191 -6.01 0
      vertex -4.97191 6.01 0
      vertex -3.32108 7.05765 0
    endloop
  endfacet
  facet normal 0 0 -1
    outer loop
      vertex -6.31033 -4.58472 0
      vertex -4.97191 6.01 0
      vertex -4.97191 -6.01 0
    endloop
  endfacet
  facet normal 0 0 -1
    outer loop
      vertex -6.31033 -4.58472 0
      vertex -6.31033 4.58472 0
      vertex -4.97191 6.01 0
    endloop
  endfacet
  facet normal 0 0 -1
    outer loop
      vertex -7.25226 -2.87137 0
      vertex -6.31033 4.58472 0
      vertex -6.31033 -4.58472 0
    endloop
  endfacet
  facet normal 0 0 -1
    outer loop
      vertex -7.25226 -2.87137 0
      vertex -7.25226 2.87137 0
      vertex -6.31033 4.58472 0
    endloop
  endfacet
  facet normal 0 0 -1
    outer loop
      vertex -7.73849 -0.977599 0
      vertex -7.25226 2.87137 0
      vertex -7.25226 -2.87137 0
    endloop
  endfacet
  facet normal 0 0 -1
    outer loop
      vertex -7.25226 2.87137 0
      vertex -7.73849 -0.977599 0
      vertex -7.73849 0.977599 0
    endloop
  endfacet
  facet normal 0 0 1
    outer loop
      vertex 7.55495 1.93978 22
      vertex 7.55495 -1.93978 22
      vertex 7.8 0 22
    endloop
  endfacet
  facet normal 0 0 1
    outer loop
      vertex 6.83519 3.75768 22
      vertex 7.55495 -1.93978 22
      vertex 7.55495 1.93978 22
    endloop
  endfacet
  facet normal 0 0 1
    outer loop
      vertex 6.83519 3.75768 22
      vertex 6.83519 -3.75768 22
      vertex 7.55495 -1.93978 22
    endloop
  endfacet
  facet normal 0 0 1
    outer loop
      vertex 5.68596 5.33947 22
      vertex 6.83519 -3.75768 22
      vertex 6.83519 3.75768 22
    endloop
  endfacet
  facet normal 0 0 1
    outer loop
      vertex 5.68596 5.33947 22
      vertex 5.68596 -5.33947 22
      vertex 6.83519 -3.75768 22
    endloop
  endfacet
  facet normal 0 0 1
    outer loop
      vertex 4.17945 6.58576 22
      vertex 5.68596 -5.33947 22
      vertex 5.68596 5.33947 22
    endloop
  endfacet
  facet normal 0 0 1
    outer loop
      vertex 4.17945 6.58576 22
      vertex 4.17945 -6.58576 22
      vertex 5.68596 -5.33947 22
    endloop
  endfacet
  facet normal 0 0 1
    outer loop
      vertex 2.41033 7.41824 22
      vertex 4.17945 -6.58576 22
      vertex 4.17945 6.58576 22
    endloop
  endfacet
  facet normal 0 0 1
    outer loop
      vertex 2.41033 7.41824 22
      vertex 2.41033 -7.41824 22
      vertex 4.17945 -6.58576 22
    endloop
  endfacet
  facet normal 0 0 1
    outer loop
      vertex 0.489766 7.78461 22
      vertex 2.41033 -7.41824 22
      vertex 2.41033 7.41824 22
    endloop
  endfacet
  facet normal 0 0 1
    outer loop
      vertex 0.489766 7.78461 22
      vertex 0.489766 -7.78461 22
      vertex 2.41033 -7.41824 22
    endloop
  endfacet
  facet normal -0 0 1
    outer loop
      vertex -1.46157 7.66184 22
      vertex 0.489766 -7.78461 22
      vertex 0.489766 7.78461 22
    endloop
  endfacet
  facet normal 0 0 1
    outer loop
      vertex -1.46157 7.66184 22
      vertex -1.46157 -7.66184 22
      vertex 0.489766 -7.78461 22
    endloop
  endfacet
  facet normal -0 0 1
    outer loop
      vertex -3.32108 7.05765 22
      vertex -1.46157 -7.66184 22
      vertex -1.46157 7.66184 22
    endloop
  endfacet
  facet normal 0 0 1
    outer loop
      vertex -3.32108 7.05765 22
      vertex -3.32108 -7.05765 22
      vertex -1.46157 -7.66184 22
    endloop
  endfacet
  facet normal -0 0 1
    outer loop
      vertex -4.97191 6.01 22
      vertex -3.32108 -7.05765 22
      vertex -3.32108 7.05765 22
    endloop
  endfacet
  facet normal 0 0 1
    outer loop
      vertex -4.97191 6.01 22
      vertex -4.97191 -6.01 22
      vertex -3.32108 -7.05765 22
    endloop
  endfacet
  facet normal -0 0 1
    outer loop
      vertex -6.31033 4.58472 22
      vertex -4.97191 -6.01 22
      vertex -4.97191 6.01 22
    endloop
  endfacet
  facet normal 0 0 1
    outer loop
      vertex -6.31033 4.58472 22
      vertex -6.31033 -4.58472 22
      vertex -4.97191 -6.01 22
    endloop
  endfacet
  facet normal -0 0 1
    outer loop
      vertex -7.25226 2.87137 22
      vertex -6.31033 -4.58472 22
      vertex -6.31033 4.58472 22
    endloop
  endfacet
  facet normal 0 0 1
    outer loop
      vertex -7.25226 2.87137 22
      vertex -7.25226 -2.87137 22
      vertex -6.31033 -4.58472 22
    endloop
  endfacet
  facet normal -0 0 1
    outer loop
      vertex -7.73849 0.977599 22
      vertex -7.25226 -2.87137 22
      vertex -7.25226 2.87137 22
    endloop
  endfacet
  facet normal 0 0 1
    outer loop
      vertex -7.25226 -2.87137 22
      vertex -7.73849 0.977599 22
      vertex -7.73849 -0.977599 22
    endloop
  endfacet
endsolid OpenSCAD_Model
